<?xml version="1.0" encoding="UTF-8"?>
<svg id="Layer_1" data-name="Layer 1" xmlns="http://www.w3.org/2000/svg" viewBox="0 0 416.17 188.19" preserveAspectRatio="xMidYMid meet">
  <defs>
    <style>
      .cls-1 {
        fill: #f8f9f7;
      }

      .cls-2 {
        fill: #797978;
      }

      .cls-3 {
        fill: #252523;
      }

      .cls-4 {
        fill: #383938;
      }

      .cls-5 {
        fill: #787778;
      }

      .cls-6 {
        fill: #7f7e7e;
      }

      .cls-7 {
        fill: #373a36;
      }

      .cls-8 {
        fill: #393837;
      }

      .cls-9 {
        fill: #f2f3f4;
      }

      .cls-10 {
        fill: #91aa9b;
      }

      .cls-11 {
        fill: #f1ded2;
      }

      .cls-12 {
        fill: #2f2d2d;
      }

      .cls-13 {
        fill: #232321;
      }

      .cls-14 {
        fill: #252522;
      }

      .cls-15 {
        fill: #2e302e;
      }

      .cls-16 {
        fill: #f1ddd1;
      }

      .cls-17 {
        fill: #20201e;
      }

      .cls-18 {
        fill: #f2e2d8;
      }

      .cls-19 {
        fill: #777;
      }

      .cls-20 {
        fill: #f1e0d5;
      }

      .cls-21 {
        fill: #d1dbd0;
      }

      .cls-22 {
        fill: #91ab9d;
      }

      .cls-23 {
        fill: #d2dbd0;
      }

      .cls-24 {
        fill: #515452;
      }

      .cls-25 {
        fill: #d3d9cb;
      }

      .cls-26 {
        fill: #d4ddd4;
      }

      .cls-27 {
        fill: #eedfd4;
      }

      .cls-28 {
        fill: #92aea1;
      }

      .cls-29 {
        fill: #212320;
      }

      .cls-30 {
        fill: #252624;
      }

      .cls-31 {
        fill: #d3dcd2;
      }

      .cls-32 {
        fill: #262727;
      }

      .cls-33 {
        fill: #484948;
      }

      .cls-34 {
        fill: #d8ded6;
      }

      .cls-35 {
        fill: #2f2f2e;
      }

      .cls-36 {
        fill: #7f8080;
      }

      .cls-37 {
        fill: #20221e;
      }

      .cls-38 {
        fill: #9eb9aa;
      }

      .cls-39 {
        fill: #292a28;
      }

      .cls-40 {
        fill: #262623;
      }

      .cls-41 {
        fill: #c5cbce;
      }

      .cls-42 {
        fill: #302f2f;
      }

      .cls-43 {
        fill: #242423;
      }

      .cls-44 {
        fill: #181815;
      }

      .cls-45 {
        fill: #97aea1;
      }

      .cls-46 {
        fill: #787878;
      }

      .cls-47 {
        fill: #f3e5dd;
      }

      .cls-48 {
        fill: #f4e3d8;
      }

      .cls-49 {
        fill: #f1dfd2;
      }

      .cls-50 {
        fill: #d6ded3;
      }

      .cls-51 {
        fill: #32322e;
      }

      .cls-52 {
        fill: #2c362a;
      }

      .cls-53 {
        fill: #292b28;
      }

      .cls-54 {
        fill: #fff;
      }

      .cls-55 {
        fill: #90a99a;
      }

      .cls-56 {
        fill: #d4dcd0;
      }

      .cls-57 {
        font-family: CooperBlack, 'Cooper Black';
        font-size: 30px;
      }

      .cls-57, .cls-58 {
        fill: #010101;
      }

      .cls-59 {
        fill: #cdc6c6;
      }

      .cls-60 {
        fill: #20261f;
      }

      .cls-61 {
        fill: #d3dcd1;
      }

      .cls-62 {
        fill: #ecded5;
      }

      .cls-63 {
        fill: #2b2c2a;
      }

      .cls-64 {
        fill: #1b2a1a;
      }

      .cls-65 {
        fill: #333232;
      }

      .cls-66 {
        fill: #787776;
      }

      .cls-67 {
        fill: #1e1e1d;
      }

      .cls-68 {
        fill: #7a7b7b;
      }

      .cls-69 {
        fill: #ededec;
      }

      .cls-70 {
        fill: #b4b4b1;
      }

      .cls-71 {
        fill: #b9b8b4;
      }

      .cls-72 {
        fill: #262624;
      }

      .cls-73 {
        fill: #7e7f7f;
      }

      .cls-74 {
        fill: #fdfefd;
      }

      .cls-75 {
        fill: #eedcd1;
      }

      .cls-76 {
        fill: #22221f;
      }

      .cls-77 {
        fill: #f3f4f4;
      }

      .cls-78 {
        fill: #7c7b7b;
      }

      .cls-79 {
        fill: #fffffd;
      }

      .cls-80 {
        fill: #f7f8f8;
      }

      .cls-81 {
        fill: #d2e0e5;
      }

      .cls-82 {
        fill: #797a7a;
      }

      .cls-83 {
        fill: #2b2b2a;
      }

      .cls-84 {
        fill: #f2e0d6;
      }

      .cls-85 {
        fill: #1e201e;
      }

      .cls-86 {
        fill: #6b6c6c;
      }

      .cls-87 {
        fill: #e9d6cd;
      }

      .cls-88 {
        fill: #7b7c7b;
      }

      .cls-89 {
        fill: #787979;
      }

      .cls-90 {
        fill: #f4f5f2;
      }

      .cls-91 {
        fill: #363534;
      }

      .cls-92 {
        fill: #363533;
      }

      .cls-93 {
        fill: #151918;
      }

      .cls-94 {
        fill: #dbdad9;
      }

      .cls-95 {
        fill: #282826;
      }

      .cls-96 {
        fill: #1f201e;
      }

      .cls-97 {
        fill: #2c2c2a;
      }

      .cls-98 {
        fill: #212020;
      }

      .cls-99 {
        fill: #302f2e;
      }

      .cls-100 {
        fill: #797778;
      }

      .cls-101 {
        fill: #d2dace;
      }

      .cls-102 {
        fill: #272826;
      }

      .cls-103 {
        fill: #2a2c2c;
      }

      .cls-104 {
        fill: #292627;
      }

      .cls-105 {
        fill: #2c2d2a;
      }

      .cls-106 {
        fill: #32302e;
      }

      .cls-107 {
        fill: #2c2e2b;
      }

      .cls-108 {
        fill: #eae9eb;
      }

      .cls-109 {
        fill: #31322e;
      }

      .cls-110 {
        fill: #303232;
      }

      .cls-111 {
        fill: #444742;
      }

      .cls-112 {
        fill: #23211f;
      }

      .cls-113 {
        fill: #1a1b19;
      }

      .cls-114 {
        fill: #7b7c7c;
      }

      .cls-115 {
        fill: #d3dfe3;
      }

      .cls-58 {
        opacity: .12;
      }

      .cls-116 {
        fill: #ad9f9f;
      }

      .cls-117 {
        fill: #7e807f;
      }

      .cls-118 {
        fill: #f0e0d9;
      }

      .cls-119 {
        fill: #131210;
      }

      .cls-120 {
        fill: #f2e1d7;
      }

      .cls-121 {
        fill: #d8ded7;
      }

      .cls-122 {
        fill: #7c7c7d;
      }

      .cls-123 {
        fill: #d9ddd2;
      }

      .cls-124 {
        fill: #636365;
      }

      .cls-125 {
        fill: #f4e3d9;
      }

      .cls-126 {
        fill: #d5d8d2;
      }

      .cls-127 {
        fill: #292928;
      }

      .cls-128 {
        fill: #21201e;
      }

      .cls-129 {
        fill: #e8d9d0;
      }

      .cls-130 {
        fill: #f4e5dd;
      }

      .cls-131 {
        fill: #292927;
      }

      .cls-132 {
        fill: #292a29;
      }

      .cls-133 {
        fill: #323231;
      }

      .cls-134 {
        fill: #f1e5db;
      }

      .cls-135 {
        fill: #d5dcd2;
      }

      .cls-136 {
        fill: #d0d6cc;
      }

      .cls-137 {
        fill: #3a3c35;
      }

      .cls-138 {
        fill: #2a2c29;
      }

      .cls-139 {
        fill: #2c2b2a;
      }

      .cls-140 {
        fill: #2b2827;
      }

      .cls-141 {
        fill: #2e2e2c;
      }

      .cls-142 {
        fill: #383937;
      }

      .cls-143 {
        fill: #d7d9d0;
      }

      .cls-144 {
        fill: #f3e5dc;
      }

      .cls-145 {
        fill: #272724;
      }

      .cls-146 {
        fill: #f1e0d6;
      }

      .cls-147 {
        fill: #cfd2c8;
      }

      .cls-148 {
        fill: #1e1e1c;
      }

      .cls-149 {
        fill: #2b2c2b;
      }

      .cls-150 {
        fill: #141313;
      }

      .cls-151 {
        fill: #3f3f3e;
      }

      .cls-152 {
        fill: #272926;
      }

      .cls-153 {
        fill: #2e2f2e;
      }

      .cls-154 {
        fill: #d6ded5;
      }

      .cls-155 {
        fill: #7b7d79;
      }

      .cls-156 {
        fill: #373736;
      }

      .cls-157 {
        fill: #afafab;
      }

      .cls-158 {
        fill: #1e1f1d;
      }

      .cls-159 {
        fill: #7e7e7e;
      }

      .cls-160 {
        fill: #dde1e4;
      }

      .cls-161 {
        fill: #1e1d1b;
      }

      .cls-162 {
        fill: #312f2d;
      }

      .cls-163 {
        fill: #f1ddd2;
      }

      .cls-164 {
        fill: #41453e;
      }

      .cls-165 {
        fill: #303130;
      }

      .cls-166 {
        fill: #f6e6db;
      }

      .cls-167 {
        fill: #2d2b28;
      }

      .cls-168 {
        fill: #7d7d7d;
      }

      .cls-169 {
        fill: #7e7f80;
      }

      .cls-170 {
        fill: #2d2d2c;
      }

      .cls-171 {
        fill: #e9d7cd;
      }

      .cls-172 {
        fill: #ececec;
      }

      .cls-173 {
        fill: #1d1d1c;
      }

      .cls-174 {
        fill: #e0e8ee;
      }

      .cls-175 {
        fill: #d2dbd2;
      }

      .cls-176 {
        fill: #f6f5f5;
      }

      .cls-177 {
        fill: #1f2020;
      }

      .cls-178 {
        fill: #6a6a69;
      }

      .cls-179 {
        fill: #424241;
      }

      .cls-180 {
        fill: #3f4040;
      }

      .cls-181 {
        fill: #353535;
      }

      .cls-182 {
        fill: #f3e3d9;
      }

      .cls-183 {
        fill: #7b7b7a;
      }

      .cls-184 {
        fill: #7d7c7c;
      }

      .cls-185 {
        fill: #323230;
      }

      .cls-186 {
        fill: #21211f;
      }

      .cls-187 {
        fill: #222221;
      }

      .cls-188 {
        fill: #232421;
      }

      .cls-189 {
        fill: #807f7f;
      }

      .cls-190 {
        fill: #d7ddd4;
      }

      .cls-191 {
        fill: #373636;
      }

      .cls-192 {
        fill: #f2e1d6;
      }

      .cls-193 {
        fill: #caced1;
      }

      .cls-194 {
        fill: #434442;
      }

      .cls-195 {
        fill: #d2cbc7;
      }

      .cls-196 {
        fill: #e7e7e4;
      }

      .cls-197 {
        fill: #3f3e3c;
      }

      .cls-198 {
        fill: #f2e4da;
      }

      .cls-199 {
        fill: #f4f4f4;
      }

      .cls-200 {
        fill: #c9d1c2;
      }

      .cls-201 {
        fill: #272726;
      }

      .cls-202 {
        fill: #323432;
      }

      .cls-203 {
        fill: #ebecea;
      }

      .cls-204 {
        fill: #f5f5f5;
      }

      .cls-205 {
        fill: #2d2c2b;
      }

      .cls-206 {
        fill: #7f7f7d;
      }

      .cls-207 {
        fill: #dedbd7;
      }

      .cls-208 {
        fill: #f4e2da;
      }

      .cls-209 {
        fill: #ddd8d2;
      }

      .cls-210 {
        fill: #121311;
      }

      .cls-211 {
        fill: #2d2d2b;
      }

      .cls-212 {
        fill: #f0e5e0;
      }

      .cls-213 {
        fill: #91aa99;
      }

      .cls-214 {
        fill: #282926;
      }

      .cls-215 {
        fill: #79797a;
      }

      .cls-216 {
        fill: #bcbab9;
      }

      .cls-217 {
        fill: #d8e0d7;
      }

      .cls-218 {
        fill: #161214;
      }

      .cls-219 {
        fill: #201f1d;
      }

      .cls-220 {
        fill: #2f2e2d;
      }

      .cls-221 {
        fill: #b2b2ae;
      }

      .cls-222 {
        fill: #131413;
      }

      .cls-223 {
        fill: #393937;
      }

      .cls-224 {
        fill: #e0e4e5;
      }

      .cls-225 {
        fill: #323130;
      }

      .cls-226 {
        fill: #f0ded3;
      }

      .cls-227 {
        fill: #d4d4ce;
      }

      .cls-228 {
        fill: #f3e4da;
      }

      .cls-229 {
        fill: #242a22;
      }

      .cls-230 {
        fill: #353532;
      }

      .cls-231 {
        fill: #95ad9d;
      }

      .cls-232 {
        fill: #2c2c29;
      }

      .cls-233 {
        fill: #272725;
      }

      .cls-234 {
        fill: #d3dacf;
      }

      .cls-235 {
        fill: #e4d7d0;
      }

      .cls-236 {
        fill: #e1e9df;
      }

      .cls-237 {
        fill: #f1dbcd;
      }

      .cls-238 {
        fill: #222323;
      }

      .cls-239 {
        fill: #2a2b2a;
      }

      .cls-240 {
        fill: #181917;
      }

      .cls-241 {
        fill: #181a17;
      }

      .cls-242 {
        fill: #98b0a0;
      }

      .cls-243 {
        fill: #f1f1f1;
      }

      .cls-244 {
        fill: #7c7c7b;
      }

      .cls-245 {
        fill: #dfe1e1;
      }

      .cls-246 {
        fill: #c5c6c3;
      }
    </style>
  </defs>
  <g>
    <rect class="cls-61" width="415.33" height="188.19" rx="12.76" ry="12.76"/>
    <text class="cls-57" transform="translate(207.5 167.93)" text-anchor="middle"><tspan x="0" y="0">No excuses, just results!</tspan></text>
  </g>
  <g>
    <path class="cls-1" d="M231.67,87.56l1.16,2.62-.18.32c-.71.64-.42,1.23-1.47,1.23-.39-.87-1.13-1.7-1.47-2.7-.03-.08.09-.79-.27-1.52-.07-.14-.88-.76-.71-.93.4-.4,1.13,1.34,1.63,1.43.38.07.85-.51,1.31-.45Z"/>
    <path class="cls-105" d="M182.92,76.29c.24.87.25,1.72.62,2.69.43,1.15,2.18,3.57,2.33,4.29.03.14.06.4-.13.37-1.37-1.41-2.47-3.63-3.07-5.5-.21-.65-.77-2.79-.73-3.32,1.25-.23,1.41.46.98,1.47Z"/>
    <path class="cls-239" d="M218.2,6.96c-.43.33-.68.08-.73-.75,1.72-2,.77-2.64-.33-.18l-.66.44c-.1.34-.12,2.06-.25,2.21-.42-.02-.52.16-.43-.31.2-1.16.68-5.51,2.65-4.98,1.79.48.66,2.75-.25,3.58Z"/>
    <path class="cls-153" d="M198.11,7.69c.05.38-.04.54-.25.49-.21-.71-.5-1.81-.74-2.45l-.56-.09c-1.34-2.24-1.12-.57.03.49l-.21,1.07c-3.7-2.29-.44-6.13,1.27-1.64.3.78.32,1.35.44,2.13Z"/>
    <path class="cls-149" d="M225.3,20.92c3.06-.93,2.97,1.86,1.12,1.93-.63.02-1.52-.51-2.17-.41-.22.03-1.57.88-.91-.16.37-.59.77-.59,1.23-.86.45-.34.59-.2.25.25-.18.44,1.66.26.98-.49-.67.23-.83.15-.49-.25Z"/>
    <path class="cls-224" d="M216.48,6.47c.22-.79.94-2.78,2.05-2.43s-.3,1.85-.58,2.31c-.31.51-.5.67.24.61-.74.68-.83.13-.74-.74l-.98.25Z"/>
    <path class="cls-185" d="M189.78,12.59c.32.34.19.47-.25.25-.26.29-.74.38-1.44.28.88.42,1.77.9,2.67,1.44.54-.88,1.11.86-.25.25-.53-.12-1.18.03-1.92-.17-2.54-.68-1.94-3.53,1.18-2.04Z"/>
    <path class="cls-160" d="M197.13,5.73l-.74,1.47c.13-.87-.86-1.33-1.1-1.97-.6-1.67,1.03-1.69,1.83.5Z"/>
    <path class="cls-35" d="M181.94,112.06l-1.9-3.85c-.07-.73-.3-1.71.31-2.27-.33,2.48,1.79,3.78,1.59,6.12Z"/>
    <path class="cls-110" d="M185.12,88.05c.19.19-2.3,4.21-2.33,4.9-.54-.37-.22-.45-.12-.85.11-.44,1.78-4.73,2.45-4.05Z"/>
    <path class="cls-202" d="M237.06,102.51c1.11,1.07-.7,5.67-1.47,4.9-.15-.15,1.07-1.88,1.17-2.38.19-.94-.07-1.36-.17-2.17-.06-.47.29-.51.47-.34Z"/>
    <path class="cls-202" d="M189.78,12.59c.82.39,2.1,1.78,2.4,2.63.48,1.35-1.34-.35-1.66-.42h.49c.05-.26-.24-.23-.24-.25-.98-.44-1.39-1.01-1.23-1.72l.25-.25Z"/>
    <path class="cls-165" d="M231.67,87.56c.54.07,1.89,3.18,1.71,3.92-.64.16-.55-.54-.73-.98-.38-.93-1.27-2.21-.98-2.94Z"/>
    <path class="cls-156" d="M181.93,78.74c.26.23.93,2.92,1.47,3.43-.66.63-1.95-2.87-1.96-3.3,0-.21.45-.16.49-.13Z"/>
    <path class="cls-151" d="M234.86,91.72c-.69.12-.4-.16-.55-.54-1.56-3.93.56-1.82.55.54Z"/>
    <path class="cls-181" d="M238.78,104.96c.24.6-.75,2.77-1.47,2.2-.08-.06.73-1.5.86-1.72.19-.32-.04-.62.61-.48Z"/>
    <path class="cls-180" d="M179,108.14c-.26.62,1.19,2.24.98,2.45-.47.49-2.37-2.53-.98-2.45Z"/>
    <path class="cls-179" d="M183.41,88.3c.13.14-.69,1.67-.86,1.97-.08.14-.24.95-.61.48-.25-.31,1.03-2.92,1.47-2.45Z"/>
    <path class="cls-142" d="M185.61,135.09c-.64.64-1.59.12-2.21,0,.73-.03,1.48.04,2.21,0Z"/>
    <path class="cls-170" d="M225.3,20.92c.06.25.29.22.49.25.32.66-.54.93-.98.49.03-.13-.09-.28-.25-.25.2-.12.11-.3.74-.49Z"/>
    <path class="cls-93" d="M198.11,7.69c.07.4.29.79.24,1.22-.8.15-.36-.31-.49-.73l.25-.49Z"/>
    <g>
      <path class="cls-239" d="M245.64,8.92c-.14,2,1.18,3.04,2.94,3.55-1.37.77-2.16.75-2.77,2.37-.23.6.12,1.61-.65,1.43-.08-2.24-.84-2.62-2.6-3.41-1.13-.5.38-.54.78-.74,1.43-.73,1.42-1.49,1.82-2.84.1-.35-.15-.43.49-.36Z"/>
      <path class="cls-9" d="M245.63,10.88c.09.08,1.18,1.72,1.23,1.95-.91-.21-1.16,1.93-1.71,1.47-.15-.13-1.01-1.67-1.47-1.95.81.18,1.51-1.85,1.96-1.47Z"/>
    </g>
    <g>
      <path class="cls-103" d="M178.26,6.71c.34.37.4,3.18,2.45,3.06-1.98.73-1.72,1.14-2.43,2.72-.51,1.14-.6-.94-1.14-1.6-.44-.54-1.99-.82-1.58-1.23.32-.33,1.38.17,2.09-1.71.08-.22.05-1.82.6-1.23Z"/>
      <path class="cls-77" d="M179.23,10.13c-.05.07-1.35,1.07-1.45.99.22-.67-1.39-1.01-.98-1.46.1-.11,1.23-.68,1.46-1.23-.09.61,1.25,1.27.97,1.7Z"/>
    </g>
    <g>
      <path class="cls-63" d="M174.34,67.96c-.5,0-.97.14-1.36.48-.76.68-.32,1.92-1.34,1.97.08-.89-.1-1.69-.89-2.18-.51-.32-1.26-.05-1.07-.76,1.6-.21,1.72-1.52,2.33-2.69.49.47.36,1.12.74,1.7.52.79,1.55.62,1.58,1.48Z"/>
      <path class="cls-69" d="M172.47,67.14c.19.19.48.24.64.46l-1.1,1.1-1.1-1.1,1.1-1.1c.22.16.27.46.46.64Z"/>
    </g>
    <g>
      <path class="cls-211" d="M222.37,15.53c.36-1.46,3.43-5.43,4.87-3.28s-2.8,2.27-3.71,2.61c-.49.18-.6.75-1.16.67Z"/>
      <path class="cls-81" d="M223.83,14.06c.19-.89,2.91-2.63,3.18-1.34.2.96-2.48,1.55-3.18,1.34Z"/>
    </g>
    <g>
      <path class="cls-133" d="M207.42,6.47c-.64.07-.39,0-.49-.36-.32-1.09-1.98-5-.11-5.29,2.96-.46.55,4.41.6,5.65Z"/>
      <path class="cls-174" d="M207.42,4.75c-.4.47-.42-.18-.51-.35-1.41-2.68.68-4.06.95-2.17.02.15-.36,2.42-.44,2.52Z"/>
    </g>
    <g>
      <path class="cls-32" d="M191.68,22.43c.67,1.17-.62.3-1.08.28-.72-.04-1.44.48-2.39.4-1.98-.16-1.29-3.26,1.79-1.8.21.1,1.64,1.03,1.69,1.12Z"/>
      <path class="cls-193" d="M190.27,22.39c-.23-.07-3.12.52-2.69-.36.45-.94,2.33-.6,2.69.36Z"/>
    </g>
    <path class="cls-41" d="M225.79,21.17c2.96.38.57,1.38-1.22.98-.1-.06.22-.37.24-.49l.98-.49Z"/>
    <path class="cls-115" d="M189.53,12.84c.37.21,1.02,1.29,1.23,1.72-.77-.38-3.12-.24-3.15-1.39-.02-.86,1.46-.6,1.93-.33Z"/>
    <path class="cls-156" d="M242.21,49.34c-.34.31-.67.25-.64-.27.07-1.47.96-3.27.64-4.88.2.03.68-.05.73,0,.13.13-.4,3.17-.49,3.67-.08.45-.15,1.09-.25,1.47Z"/>
    <path class="cls-197" d="M243.92,46.16c-.15.45-.44,1.52-.49,1.96l-.24.24c.09-.67-.06-2.4.73-2.2Z"/>
    <path class="cls-243" d="M234.37,77.27l-.16-.11.16-.87.98.25c.17.42-.19.58-.25.73,0-.9-.35-.59-.74,0Z"/>
    <g>
      <path class="cls-99" d="M219.92,36.84s-.09-.52.12-.49c1.06-.27,3.89.29,3.52,1.79-.5,2.03-2.44-.45-2.9-.95-.23-.26-.72-.32-.74-.35Z"/>
      <path class="cls-245" d="M221.95,37.99c-.1-.08-.6-.86-.56-.9.5-.26,1.7.54,1.71.86.02.46-.8.34-1.15.04Z"/>
    </g>
    <g>
      <path class="cls-63" d="M232.41,79.97c-.1.19-1.45,2.55-1.46,1.35,0-.19,1.47-2.77,1.71-3.43.61-1.63.95-3.32,1.22-5.03l.49.74c-.02.08.02.17,0,.25.61.75-.84,5.05-1.27,5.43-.12.1-.28.16-.45.21-.07.15-.17.34-.25.49Z"/>
      <path class="cls-158" d="M172.63,34.64c.69.03.63,1.05,0,1.23.09.38.11.45-.25.25-.07.72-.53.63-.74,0l-.25-.25c.07-.02.29-.17.49-.25.28-.05.35-.38.25-.74.07-.21.17-.33.25-.49l.25.25Z"/>
      <path class="cls-148" d="M171.89,35.62c.16-.22.16-.49.25-.74l.23.13c.06,1.07-.43.58-.48.6Z"/>
      <g>
        <g>
          <path class="cls-67" d="M283.86,24.11c.35.26.27.34-.25.25-.38.37-.95.37-1.73.02.61,2.17,1.39,9.79.17,11.35-.11.15-.25.27-.4.39-.34.16-.3-.41-.25-.74l-.42-.69c.2-2.52.67-9.56-1.49-11.17-.98-.73-5.57-2.58-6.61-2.67.48,1.1.71,2.29.86,3.48l-.43.52c.03.3.07.73-.25.74l-.59-.56c-1.7-10.56-9.3-4.5-13.22.77l-.65.04.1.69c-.89,1.2-1.65,2.47-2.37,3.78l-.67.19c.53.55-.25,1.83-.98,1.72.22.26.11.7,0,1.02-.95,1.4-1.52,2.85-1.71,4.37-.1.02-.3.26-.49.25-.56.59-2.58.09-2.7-.74-1.92-.16-3.84-.63-5.77-1.41-.44,1.24-.97,1.71-1.58,1.41-.07.22-.16.22-.25,0-.49-.07-.65-.24-.49-.49.72-.74,1-1.58.84-2.53l.39-.41c-.17-.31-.05-.43.25-.25.42.48.35.79.66,1.23l7.92,2.34c1.61-3.79,3.42-7.5,5.82-10.86,2.5-3.51,7.17-8.89,12.01-7.74,3.9.92,10.33,4.06,14.25,5.71Z"/>
          <path class="cls-43" d="M292.19,51.3c.28.18.64.12.82.55.85,2.08-1.78,9.17-4.98,6.56-.91,2.66-6.05,11.39-8.94,11.48-.86.03-2.41-1-2.92-.9-.61.12-3.53,3.8-5.78,4.25-1.36.27-1.56-.08-2.71-.38-.84-.22-1.41-.43-2.21-.74-.56.44-.8.13-.49-.49-.24-.25-.07-.34.49-.25l.51-.31c2.3,1.12,3.81,1.84,6.07.16,3.87-2.87,6.75-7.41,9.21-11.48l.63-.13c.34-.32.47-.19.25.25l.06.58c-1.28,2.79-2.89,5.4-4.83,7.84,1.7,2.15,5.92-3.07,6.41-4.54l.56.04-.11-.73,2.12-3.66.69-.26c-.18-.85.52-2.47,1.47-2.45.33-.33.33-.2.25.25l.39.39c-.38,1.11,1.23.64,1.41-.27l.65-.12-.23-.25c.99-1.69,1.31-3.4.97-5.14-.33-.32-.2-.34.25-.25Z"/>
          <path class="cls-219" d="M293.17,40.52c-.33-.72-.49-1.62-.49-2.7l-.55-.22c.34-1.02-2.11-2.85-2.19-2.22-.91,7.16-2,13.47-4.99,20.13l-.84.93c.28.39.12.95-.46,1.68-.27.92-.68,1.5-1.25,1.75-.07.21-.15.21-.25,0l-.25-.25.23-1.51c3.89-7.76,6.03-16.32,6.35-24.99l.52-1.43c-.18-.47-.36-1.64.25-1.47.11.75.22,3.45.36,3.68.21.35,1.75.69,2.32,1.11,1.71,1.28,1.16,3.65,1.24,5.5Z"/>
          <path class="cls-98" d="M292.92,43.22c.05.62-.23,1.78-.36,2.46-.24,1.32-1.28,3.78-1.31,4.82-.02.55.59.58.94.8l-.25.25c-.04.31-.29.45-.74.41l-1.14,3.37-.57.14c.61.43-.06,1.64-.74,1.47l-.25-.25-.25-.65c1.74-4.29,3.17-8.79,3.87-13.38l.54-.43c.11.29.2.62.25.98Z"/>
          <path class="cls-65" d="M283.86,24.11c1.49.63,3.35.73,4.17,2.21.13.36.11.43-.25.25l-.52.17c-1.14-.7-2.32-1.31-3.57-1.82l-.08-.56.25-.25Z"/>
          <path class="cls-219" d="M289,29.01c.08.39.19,1.06-.25.98-.94-.29-1.32-2.62-.98-3.43l.25-.25c.46.83.75,1.78.98,2.7Z"/>
          <path class="cls-98" d="M293.17,40.52c.05.64.16,1.76-.25,2.21-.07-.46-.16-.95-.25-1.47-.7-.78-.78-2.7,0-3.43.15.76.44,1.97.49,2.7Z"/>
          <path class="cls-205" d="M289.25,30.23c-.41.27-.24,1.01-.25,1.47-.88.56-1.18-1.63-.25-1.72.02-.15.44-.6.25-.98.13.52.16.69.25,1.23Z"/>
          <path class="cls-219" d="M292.92,42.73c0,.16,0,.33,0,.49,0-.12-.44-.61-.25-.98-.65-.37-.66-.6,0-.98.4.26.25,1.01.25,1.47Z"/>
          <path class="cls-98" d="M273.32,24.84c.14.15.28.31.38.48,1.38,2.28-.56,12.61-1.34,15.54-2.54,9.52-7.9,20.91-16.59,26.08l.65,1.03c.25.26.09.34-.49.25-1.55-.6-3.09-.83-4.66-1.72-.35-.42-.21-.55.25-.25l.53-.38c4.22.59,8.05-3.73,10.19-6.93,6.42-9.6,11.06-21.17,10.3-32.85l.54-.51c.01-.09.37-.45.25-.74Z"/>
          <path class="cls-78" d="M270.14,31.21c.24,5.55-1.6,11.4-3.78,16.5-1.8,4.23-7.23,14.73-12.53,14.65-2.33-.03-3.88-3.48-3.29-5.43-.13-1.55-.02-3.44,0-5.03,0-.41-.16-1.09.25-1.34.8-1.14,1.67-1.55,2.62-1.21.35-.27,1.35-1.42,1.05-1.92l.5-.31c.37,1.23.52,3.24,2.3,3.18,2.88-.11,5.49-5.91,6.15-8.32,2.29-8.42-2.68-10.77-6.26-2.94l-2.95-1.12c1.51-4.06,3.99-8.69,7-11.86,6.25-6.58,9.15-2.2,8.95,5.15Z"/>
          <path class="cls-184" d="M273.08,25.58c-.22,1.85.13,4.08,0,6-.57,8.52-5.14,20.21-10.09,27.15-2.46,3.45-6.69,8.78-11.47,7.52.03-.04,0-.16,0-.25-.97-.62-.45-3.13.75-2.82.14-.35.28-.56.72-.61l.23-.27c3.79.33,6.88-3.7,8.83-6.54,4.49-6.56,7.07-14.57,8.34-22.35.37-1.28.35-3.2.25-4.54-.7-9.37-6.52-7.4-11.03-1.83-.66.37-1.4-.65-.98-1.23,4.64-6.14,12.54-12.34,14.46-.25Z"/>
          <path class="cls-17" d="M270.38,33.42c-.11,6.01-3.53,14.82-6.57,20.01-1.93,3.29-6.38,9.99-10.82,9.15-.06.11-.12.22-.21.28-.8.58-3.72-3.61-2.73-4.69-.68-.29-.66-.68,0-.98.02-.24.1-.33.25-.25h.25c.46,5.65,3.62,6.69,7.72,2.95,6.46-5.9,11.64-20.04,11.88-28.67.43.47.26,1.53.25,2.21Z"/>
          <path class="cls-117" d="M252.99,62.57c-.24.99-.4,1.3-1.47.98.44.71-.14,1.33-.15,1.6-.01.25.2.3.15.85-.62-.09-1.65-1.2-1.96-1.72s-.85-1.87-.98-2.45c-.06-.28-.25-1.26-.25-1.47l.21-2.03c.48-.14.98-.2,1.5-.18.18,1.25,1.58,4.15,2.94,4.41Z"/>
          <path class="cls-5" d="M250.05,57.18c.04.31-.05.67,0,.98-.27.24-.32.8-.62.98-.48.29-.23-.87-.85-.49.27.54-.24,1.5-.25,1.71.04-.56-.06-1.16,0-1.72s.35-2.67.5-2.99c.14-.28.9-.68.97-1.42,0,.99.12,1.97.25,2.94Z"/>
          <g>
            <path class="cls-112" d="M270.38,33.42c-.11-.64-.2-1.38-.25-2.21l-.48-.52c-.19-12.68-7.44-6.53-11.78.66-.73,1.21-2.96,5.16-3.05,6.29,0,.11,1.93.82,2.03.77.98-1.94,3.34-5.65,5.94-4.37,4.37,2.15-.66,16.07-5.02,16.69-2.63.37-2.9-1.59-2.83-3.6l-.44-.38.43-3.43-2.12-.77-1.12,5.22-.66,1.08-.25,1.23c.46.08.43.27,0,.49l-.16.94c.5,1.46.68,4-.09,5.43-.07.21-.15.21-.25,0-.23-1.67-.31-3.39-.25-5.15-.08-.2-.08-.44,0-.74-.09-.19-.18-.39-.23-.59s-.1-.39-.07-.57c.37-2.48.78-4.96,1.64-7.25-.07-2.6-1.34,3.28-1.63,4.65-.22,2.12-.7,4.11-1.42,5.96-.19,1.76-.26,3.66,0,5.39.19.51.19,1.08,0,1.72.71-.12.89,1.24.25,1.47.02.24.01.33-.25.25-.14-.5-.17-.73-.25-1.23l-.25-1.23c-.02-.24.01-.49,0-.74-.22-1.7-.23-3.46,0-5.15-.19-.33-.22-.67,0-.98l.25-1.47c-.88-.78-.32-1.89.25-2.7l-.24-.51c.35-2.4.92-4.76,1.71-7.09l-.77.19c-2.11-.8-4.22-1.52-6.33-2.15-.41.5-.58.34-.49-.49-.46.55-1.06.49-1.23-.25-.48.29-1.05.3-1.7.04.76,2.24-1.83,2.82-1.44.2-.48-.52-.74-1.01-.78-1.46-.88.2-3.45-.27-2.45-1.47,5.57-.98-2.43-2.13-1,1.49.55.54.72,1.02.51,1.45.7-.34,1.19.32,1.47,1.96-.36.34-1.43.55-1.23-.25-1.32-.46-2.19-2.36-2.46-3.79-3.84-.58-7.68-1.08-11.53-1.51l.03-.59.98-.25c1.87-.4,3.83-.37,5.89.09l4.96.9c.39-.99.98-1.51,1.96-1.87-.24-.03-.34-.22-.32-.6-.14-.25.02-.33.49-.25.93-.3.73-.84,1.47-1.23.29-.08.38-.05.25.25l.17.5c-1.46,2.12,1.87,1.67.17.03l.15-.54c.04-.16.2-.25.49-.25,1.13.14,1.38.16,2.45.49.18.3.07.41-.25.25-.54.17-.86.38-.96.62l.2,1.97c-.19.55-.1.91.27,1.08.61-.38.84-.13.49.49-.29.36-.13.77.49,1.23.81-.34,1.85-.28,2.21.49,1.66-.13,4.03.15,5.15,1.47.46-.12.93-.14,1.39-.05l10.21,3.95c.41-.61.84-1.3.71-2.08l-6.79-2.72-.14-.57c-.16-.55,0-.63.49-.25.7-1.12,1.25-2.34,1.65-3.65l.56-.03c.01-1.55.5-2.45,1.47-2.7-.19-.7.12-1.47.94-2.31.55-1.13,1.22-1.75,2-1.86l-.06-.69c7.5-8.99,13-3.11,11.41,6.8l-.57.26Z"/>
            <g>
              <path class="cls-119" d="M237.06,31.21c-.07.26-.3.2-.49.25-.14.65-.3.62-.49,0l-.25-.25c.77-.4.74-.06,1.23,0Z"/>
              <g>
                <g>
                  <path class="cls-163" d="M237.06,37.09c2.02,1.04,1.05,2.49,1.23,2.69.15.18.71-.14.73-.6.02-.53-.55-1.05-.48-1.61.83.18,1.64.49,2.45.73l-.97.9c-.11.63-.05.73.48.93-.16.4-1.78.42-2.2,1.35-.85-.73-1.64-.85-2.7-.98-1.05-.27-.6-.76-.9-1.41-.15-.33-.41-.36-.57-.55-.64-1.6,1.71-1.71,2.94-1.47Z"/>
                  <path class="cls-130" d="M234.12,38.56c-.96-1.11-1.61-1.73-.79-3.36.75-1.49,2.66-.98,3.97-.8.08,1.33-1.37,1.58-2.45,1.47.05.88,1.35.79,2.2,1.22-.98.3-2.56.25-2.94,1.47Z"/>
                  <path class="cls-212" d="M236.57,31.46c1.56,1.41.93,2.83-1.23,2.21-.17-.53.31-1.99.74-2.21.09-.05.34.04.49,0Z"/>
                  <path class="cls-195" d="M239.27,36.11c.38.47-.14.79,1.23.74l-.74.49c-1.07-.31-2.15-.53-3.18-.98l2.69-.24Z"/>
                </g>
                <g>
                  <path class="cls-220" d="M247.84,58.9c-.52-1.58-.16-3.48-.25-5.15h.25c0,1.7-.07,3.45,0,5.15Z"/>
                  <path class="cls-140" d="M248.09,60.86c-.05-.33-.2-.62-.25-1.23.4.21.23.83.25,1.23Z"/>
                  <path class="cls-82" d="M255.93,43.22c1.93,1.18,4.41,1.6,4.59-1.41.11-1.73-1.53-1.94-2.88-2.27-.08-1.42,2.85-4.74,4.08-4.84.63-.05,1.22.63,1.43,1.17,1.28,3.21-1.53,11.03-4.31,13.09-3.99,2.96-3.29-3.36-2.92-5.74Z"/>
                  <path class="cls-135" d="M249.8,37.09c.84.28,1.92.46,2.7.74.89.32,7.1,2.64,7.31,2.98.42.68-.22,2.54-1.09,2.85-3.91-1.3-7.69-3.11-11.6-4.36-.85-1.79.44-2.66,2.14-2.18l.55-.03Z"/>
                  <path class="cls-169" d="M250.05,51.06l-.25,1.96c.34.19.41,1.1,0,1.23-.44,1.33-.75,2.71-.94,4.14l-.53.27c-.24-1.74-.2-3.61,0-5.39.41-4.11,1.29-8.06,2.45-12.01,2.13.28.65,2.39.31,3.87-.44,1.96-.72,3.95-1.05,5.93Z"/>
                  <path class="cls-36" d="M258.62,25.82l.98,1.23c-.92,1.13-2.18,2.93-2.94,4.17-.45.57-1.28-.12-.98-.74,1.03-1.84,1.64-2.94,2.94-4.66Z"/>
                  <path class="cls-189" d="M255.19,33.91c-.51,1-.99,2.83-1.45,3.53-.2.3-.52.1-.76.15-.57-.2-.49-.5-.39-.99.23-1.18,1.52-3.25,2.11-4.4.82-.36.98.21.49,1.72Z"/>
                  <path class="cls-215" d="M256.66,31.21c-.46.76-1.05,1.89-1.47,2.7-.23-.58.15-1.51-.49-1.72.33-.66.65-1.12.98-1.72l.98.74Z"/>
                  <path class="cls-222" d="M250.29,56.94c-.01.11-.13.22-.25.25-.77-.67-.86-1.65-.25-2.94,0-.39-.04-.85,0-1.23l.25-1.23c.33,1.41.39,3.64.25,5.15Z"/>
                  <path class="cls-220" d="M248.33,58.65c-.42-.1-.23-.76-.24-1.1-.04-.99-.08-2.23-.01-3.21.04-.53.24-.9.26-1.08v5.39Z"/>
                  <path class="cls-5" d="M250.05,51.79c.23.47-.22,1.01-.25,1.23-.2-.75.15-1.4.25-1.96.03.23-.05.53,0,.74Z"/>
                  <path class="cls-220" d="M247.84,52.77c0-.46-.17-1.2.25-1.47-.03.46.18,1.2-.25,1.47Z"/>
                </g>
              </g>
            </g>
          </g>
          <path class="cls-183" d="M281.41,35.38c.06,2.58-.71,5.32-1.45,7.81-2.6,8.78-7.72,20.66-15.32,26.05-1.33.94-2.43,1.64-3.81.44-1.45-.47-2.98-1.16-4.41-1.72-.73-.28-1.46-.6-2.2-.86,5.69-2.23,9.75-8.2,12.54-13.43,4.51-8.46,7.75-19.26,6.57-28.83-.23-1.84-.46-3.27-1.47-4.9,2.25.87,4.67,1.54,6.85,2.58,1.99.95,2.07,1.39,2.54,3.58.61,2.78.5,6.44.16,9.27Z"/>
          <path class="cls-78" d="M283.61,24.35c.75.29,3.84,1.7,4.17,2.21.44.69.65,2.58.98,3.43-.05.48-.13,1.42.25,1.72-.12,9.67-2.54,19.4-7.11,27.93-1.99,3.71-7.05,11.04-10.86,12.78-1.96.9-3.69-.22-5.56-1.02-1.47-.11-3.85-1.02-1.28-1.89,10.2-7.47,14.86-21.64,17.45-33.39.76-4.15.72-8.45-.49-12.49.73.26,1.77.47,2.45.73Z"/>
          <path class="cls-17" d="M281.65,36.11c.13.91-.64,4.02-.9,5.1-1.68,7.11-5.42,15.75-9.68,21.68-1.99,2.76-4.55,6.04-7.79,7.28-.25.34,1.97,1.12,2.2,1.22l-.49.25c-1.53-.59-3.11-1.13-4.66-1.72l.49-.25c1.92.63,2.45.2,4.1-.92,8.03-5.43,15.35-23.96,16.48-33.38-.18.36.24.7.25.74Z"/>
          <path class="cls-78" d="M292.68,37.83c-.05,1.14.07,2.3,0,3.43-.02.32.03.66,0,.98-.38,3.86-2.56,10.86-4.17,14.46-.33.74-1.08,1.69-1.47,2.45-1.3-.55-2.12-1.35-2.45-2.42l-.49-.28c.92-2.76,2.1-5.41,2.94-8.2,1.34-4.45,2.23-8.95,2.45-13.6,2.23.48,2.76,1.02,3.18,3.18Z"/>
          <path class="cls-244" d="M282.39,59.88c1.95.61,2.55,1.29,1.92,3.33l.04.59c-1.67,2.54-4.16,7.24-7.84,4.53,2.29-2.5,4.05-5.46,5.63-8.45h.25Z"/>
          <path class="cls-2" d="M284.1,56.45c.19-.17.72-.32.98-.49-.06.56.06,1.38.48,1.78.58.55,1.29-.02,1.48,1.4-.91,1.77-1.6,2.99-2.7,4.66-1.45-.73-.01-1.35-.23-2.28-.08-.35-1.26-1.23-1.73-.66.3-.36,0-.93,0-.98.11-.64,1.26-3.02,1.72-3.43Z"/>
          <path class="cls-221" d="M291.94,51.55c1.68,1.01.05,4.17-.74,5.39-.86.88-1.58-.37-1.72-1.47.24-.63,1.3-4.03,1.47-4.17.04-.03.93.22.98.25Z"/>
          <path class="cls-71" d="M289.49,55.47c1.07.32.66,1.77,1.56,1.31l.15.16c-.78,1.23-.92,1.91-2.69,1.21-.1-.15.15-.96.24-1.21.17-.49.54-.97.74-1.47Z"/>
          <g>
            <path class="cls-168" d="M251.03,48.85c.33-2.35.86-4.58,1.47-6.86.11-.1,2.82.89,2.9,1.02.14.23-.37,3.48-.45,4.13-.05.41.13,1.11-.05,1.42-.05.09-.48.2-.68.41-.23.23-.31.74-.66.85-.47.15-.85-.23-1.17-.23-.16,0-.14.38-.31.49-.93.62-1.26.34-1.05,1.96-.45-.04-.24-1.13-.24-1.47,0-.16,0-.33,0-.49l.25-1.23Z"/>
            <path class="cls-78" d="M250.78,50.08c.04-.61.2-.87.25-1.23-.01.39.15,1.02-.25,1.23Z"/>
            <path class="cls-78" d="M251.52,48.12c.34-.26.98.72.97.86-.05.61-1.88.94-.97-.86Z"/>
          </g>
          <g>
            <path class="cls-233" d="M191.49,31.21c.21.4.83.23,1.23.25-.26.26-.54.53-.9.63-1.91.53-4.6,1.14-6.45.84-1.09.74-2.4,1.12-3.93,1.14-.02.29-.17.47-.48.57-.05,0-.76,0-.98,0l-.36-.4c.11-.7-.26-1.31-1.11-1.8.26-.3.72-.19.98-.49.7.16.8,1.23,1.34,1.24,3.52-.85,7.09-1.41,10.67-1.98Z"/>
            <path class="cls-233" d="M234.37,32.44c-.18.06-.41,0-.49.25l-.87.31c-1.29-.1-7.88-.9-8.36-1.37-.12-.12-.22-.26-.32-.41.43-.17.92-.25,1.47-.25,2.64,0,5.99.87,8.58,1.47Z"/>
            <path class="cls-173" d="M225.06,30.97c.24,0,.49,0,.74,0-.13,0-.95.22-1.47.25-.14.47-.35.47-.49,0,.21-.39.83-.24,1.23-.25Z"/>
            <path class="cls-23" d="M166.01,38.32c.28.21,1.16.91,1.39.95.33.05.82-.7,1.06-.46.06.06.33,1.23.74,1.47-.91.32-1.99.85-2.94,1.23-.24-1.04-2.95-.49-2.94-1.35,0-.18,2.36-1.05.98-1.1.57-.23,1.12-.5,1.72-.74Z"/>
            <path class="cls-162" d="M157.68,41.75c-.57.31-1.38.71-1.23,1.47-.07-.16-.36-.34-.49-.49.12-1.21.49-.83,1.23-1.23l.49.25Z"/>
            <path class="cls-154" d="M222.12,30.97c.47.41,1.13.24,1.72.25.16,0,.33,0,.49,0,3.09.77,6.47.72,9.56,1.47,2.54.62.09,1.1-.51,1.57-.43.34-.69,1.36-.86,1.39-.61.09-4.56-.83-5.64-.96-1.82-.23-3.65-.34-5.48-.52s-3.75-.46-5.64-.49c.03-.41-.09-.92.04-1.31.05-.16,2.08-1.53,2.34-1.59.73-.16,2.91.22,3.99.2Z"/>
            <path class="cls-26" d="M192.72,31.46c.63-.08,4.25-.51,4.48-.45.11.03,1.85,1.09,1.97,1.18.33.25.34.63.42.99-.06.2.18.65-.15.74-3.88.36-7.77.81-11.61,1.46-.71-.01-1.38-.15-2.01-.42-2.35,1.4-2.19-1.74-.44-2.03,2.42-.49,4.9-1.15,7.35-1.47Z"/>
            <path class="cls-121" d="M185.37,32.93c1.2.12-.27.24-.6.75-.44.68-.33,1.62.55,1.14.05-.03.06-.42.18-.43.3-.03,1.97.69,2.32.99-1.05.18-4.2,1.18-4.98,1-.17-.04-.42-1.06-1.14-1.49-.38-.23-.3-.18-.74-.25l-.1-.98c1.49-.24,3.04-.44,4.51-.74Z"/>
            <path class="cls-34" d="M249.8,37.09c-.42.51-1.01.05-1.36.1-.22.03-.4.36-.63.49-.26.15-.68.12-.71.15-.11.1,1.11,1.66,0,1.47-1.6-.51-3.49-1-5.15-1.47.27-.23.43-.48.49-.74.71-.22.98-1.85,1.37-1.94.31-.07,5.18,1.68,5.98,1.94Z"/>
            <path class="cls-148" d="M174.1,37.34c.1,0,.29.1.25.25-.12.05-.38.72-.98.49-.43-.31-1.06-1.38-.98-1.96.05,0,.15-.2.25-.25.04.2.68,1.35.85,1.5.32.27.47-.02.62-.03Z"/>
          </g>
        </g>
        <g>
          <path class="cls-186" d="M131.47,64.53c.24.36.14.48-.25.25-.5-.76-1.03-1.5-1.51-2.29-.29-.48-.51-1.37-.69-1.63-.66.01-.91-.15-.74-.49-.02-.12-.05-.25-.13-.32-.46-.37-1.22-1.57-.85-2.38-.93-.75-1.53-1.86-1.79-3.32-1.45.3-.91,2-.49,2.96.53.77.72,1.46.57,2.07.72-.1.82.32.25.74.32.34.19.47-.25.25-1.01-1.17-2.89-4.85-1.72-6.26.42-.51,1.63-.61,1.72-.99.05-.21-1.17-3.32-1.34-4.03-.35-1.4-.72-2.98-.86-4.41.09-.43.19-.66.49-.25l.58.62c1.13,6.57,3.7,12.89,7.07,18.63l-.05.85Z"/>
          <path class="cls-128" d="M168.71,54c.44,3.68.49,8.8-1.47,12.01-.34.32-.47.19-.25-.25l-.22-.63c2.29-6.45.48-13.93-1.32-20.33l.31-.6.25-.49c1.09,3.37,2.27,6.73,2.7,10.29Z"/>
          <path class="cls-96" d="M127.3,32.68l.37.35c.33,3.23.64,6.48.94,9.77l-.33.9-.25.49c-.81-1.04-1.26-2.38-1.37-3.99-.07-2.75-.7-2.99-2.28-1.04-.07.72-.32,1.17-.76,1.35-.07.21-.15.21-.25,0-.14-.32-.14-.72,0-1.23.72-2.78,2.99-2.1,3.4-2.73.19-.3-.04-3.29.02-4.03.03-.32.25-.53.25-.59-.13.29.23.64.25.74Z"/>
          <path class="cls-131" d="M128.53,17c1.67,1.18-.6,2.87-1.96,2.94-.11.92-.9,1.17-2.39.75.88,1.06,1.48,2.23,1.79,3.51l-.38.4c.04.2-.04.28-.25.25l-2.39-4.54c.62-1.13,2.34-.25,2.87-.47.12-.05,2.02-1.49,2.09-1.6.2-.32.23-1.22.37-1.71.5-.48.49-.07.25.49Z"/>
          <path class="cls-30" d="M132.94,66.25l.67.09c1.1,1.63,2.33,3.29,4.15,4.13.81-.11,1.33.04,1.54.44.41-.07.57.01.49.25-.52.17-.51.55-1.6.51-2.57-.09-5.64-4.85-6.98-6.88l.25-.25c.65-.28,1.84,1.02,1.47,1.72Z"/>
          <path class="cls-53" d="M135.88,14.55c.7-.25,1.5-.24,2.21,0,.08,0,.16,0,.25,0,.32.34.19.47-.25.25-.7.04-1.44.12-2.21.25-.21.48-.66.82-1.34,1.04-.72.41-1.34.88-1.84,1.41.33.34.18.48-.25.25.22.34.31.68,0,.98-.75,1.06-3.07-1.58-2.7-2.45-.32-.35-.19-.49.25-.25.66.55,1.12.97,1.59,1.71,1.06-1.59,2.28-2.96,4.29-3.18Z"/>
          <path class="cls-15" d="M138.33,14.55c1.63.2,3.59,1.59,4.17,3.18l.49-1.96c.11.37.33.85.49,1.23.15.06.15.22,0,.49.74.31.26,1.24-.49.98-.05-.17.13-.41-.12-.49-.41-.13-.41.12-.37.49l-.57-.02c-.83-1.33-2.09-2.47-3.63-2.87l-.21-.53c-.21-.07-.21-.15,0-.25l.25-.25Z"/>
          <path class="cls-4" d="M128.28,60.37s.67.4.74.49c-1.93.31-2.01,1.15-3.43-.49l.25-.25c.73.19,1.4.14,2.01-.17l.44.41Z"/>
          <path class="cls-42" d="M167.24,66c-.36.59-.42.96-1.1,1.47-.47.35-.74.31-1.1.49-.12-.33-.47-.22-.74-.25-.03-.78.37-.96.98-.49-.15-.63,1.12-1.59,1.72-1.47l.25.25Z"/>
          <path class="cls-214" d="M123.63,40.52c.62.83.88,3.09.25,3.92l-.49.25c-.03-.32,0-.66,0-.98l-.25-1.96c0-.4-.03-.83,0-1.23.07-.21.15-.21.25,0h.25Z"/>
          <path class="cls-131" d="M126.08,25.33c.26-.65.63-.44.49.25-.28.21-.51.47-.74.74.25-1.04-1.06-.07-1.22-.25-.17-.53.36-.54.49-.73.41-.21.56-.24.98,0Z"/>
          <path class="cls-33" d="M138.08,14.55c-.61-.05-1.61-.07-2.21,0,.46-.41,1.75-.41,2.21,0Z"/>
          <path class="cls-148" d="M125.59,24.6c.62-.15.6.24.49.74-.09,0-.76.62-.98,0,.15-.21.16-.34.25-.49.05-.1.16-.18.25-.25Z"/>
          <path class="cls-139" d="M123.38,43.71c-.44-.41-.24-1.35-.25-1.96.45.41.23,1.34.25,1.96Z"/>
          <path class="cls-148" d="M140.29,70.66c.3-.3.43-.15.25.25-.16.03-.53.18-.74.25l-.49-.25c-.07-.75.63-.93.98-.25Z"/>
          <path class="cls-139" d="M123.38,40.52h-.25c.05-.63.11-.71.25-1.23v1.23Z"/>
          <path class="cls-114" d="M131.47,32.19c.1-.47.26-.64.49-.49.42,1,1.39.9,1.83,0,.19-.38-.06-1,.37-.97.15,10.8,4.15,22.26,10.04,31.24,2.75,4.18,5.05,6.91,9.24,9.61.24.15.44-.03.32.55-4.33,1.16-5.73,3.83-9.92.49-7.35-5.87-13.69-19.81-15.56-28.9-.82-3.99-.54-7.28-.98-11.03.31-1.07.27-2.33,1.1-3.18.59,1.38,1.17,4.26,3.06,2.69Z"/>
          <path class="cls-88" d="M152.54,25.82c2.29,1.63,4.11,4.56,5.64,6.86.06.8-.34,1.62-1.21,2.48-.21.67-.54,1.07-.99,1.2-2.42-1.61-3.6.66-3.66,2.86-.08,3.34,3.08,11.51,6.59,12.47,2.51.69,2.58-2.83,2.45-4.42-.23-2.9-1.43-2.73,2.21-4.05,1.11,3.44,2.04,6.93,2.45,10.53.24,2.32.7,7.8-1.52,9.26-3.91,2.56-9.37-4.99-11.06-7.77-3.99-6.57-6-13.39-7.46-20.84-.06-.3-.09-.52.2-.73-.2-1.93-.57-7.24.95-8.58,1.8-1.6,4.05-1.05,5.42.74Z"/>
          <path class="cls-68" d="M128.04,44.2c1.45,6.64,3.69,12.5,7.11,18.38l.18.68c-.07.31-.99,2.03-1.42,1.91.1.79-.2,1.71-.96,1.08-.36-.49-1.16-1.23-1.47-1.72-3.33-5.19-6.87-14-7.6-20.09-.16-1.33-.37-2.51-.25-3.92.22-2.46,1-2.62,3.18-3.43.07,2.43.71,4.76,1.23,7.1Z"/>
          <path class="cls-184" d="M143.23,30.48c-.02-.77.06-1.51.24-2.2,1.67-.13,2.23,1.01,1.69,3.42h.27s.24.25.24.25c1.44,10.79,5.34,23.5,14.14,30.5l.07.38c.61,1.3-1.63.82-2.46.57-.22-.31-.63-.5-1.21-.57-6.04-6.64-13.8-23.38-12.99-32.34Z"/>
          <path class="cls-159" d="M166.5,58.9c.57-4-.29-7.98-1.24-11.86-.16-.67-1.24-3.67-1.21-3.92.02-.22,1.08-.49,1.22-.38.06.05.41,1.21.5,1.46,1.81,5.19,4.02,16.7,1.23,21.56-.42.72-1.02,1.09-1.72,1.47-.75.23-.84-.04-1.01-.69l-1.6-1.54c-1.57-.91-.19-1.08.9-1.21l.07-.32c1.84-.65,2.34-2.72,2.58-4.45l.29-.13Z"/>
          <path class="cls-168" d="M135.14,62.57c1.52,2.61,3.38,5.33,5.39,7.6l-.25.49c-.48,0-.71.21-.98.25-1.64.22-1.78.17-3.16-.88-1.45-1.1-2.17-2.4-3.21-3.78.81-.25.32-1.1.52-1.44.1-.16.92-.24.95-.28.04-.06-.32-.47-.22-.69.04-.08.87-.61.95-1.26Z"/>
          <path class="cls-122" d="M153.03,23.13c-.17.93-.58,1.42-1.23,1.47l-.28.2c-1.63-.93-3.74-1.08-4.75.78h-.36c-1.01.94-1.41.61-1.23-.99-.07-.56.04-1.21-.02-1.82-.11-1.09-.94-1.2.43-2.06,2.57-1.61,5.51.78,7.43,2.41Z"/>
          <path class="cls-112" d="M146.17,33.66c.99,8.38,5.84,21.84,12.38,27.43,7.05,6.03,7.93-1.6,7.47-7.34,0,.05.23.26.26.59.13,1.45-.33,3.19.23,4.55-.3,2.09-.71,4.15-2.94,4.9-1.27.41-3.33.57-3.68-.98-7.55-4.09-14.3-22.92-14.46-31.12-.29-.62-.41-2.32.25-2.7l.29.06c-.02,1.55.05,3.08.2,4.6Z"/>
          <path class="cls-89" d="M156.21,62.82c.63-.37.99-.44,1.1-1.23,1.3.09-.31,1.35.49,1.47.33.05.67-.49.73-.49.24,0,.31,1.48,1.35.24,1.17.64,2.28,1.16,3.68.98l-1.47.49c.55-.11,1.22.65,1.64,1.07.25.25.75.71.92.89.22.24.13.86.62.98-.33.18-.69.26-.98.49-3.55-.28-5.81-2.4-8.09-4.9Z"/>
          <path class="cls-73" d="M145.19,24.6c.03.23.46.75.25,1.23.09.11.84-.9.98-.25.14.09.24.17.24.24-.05.47-.55,2.57-.7,3.09-.02.05-.13.08-.27.1-.11.88-.26,1.81-.25,2.7v2.2c-1.44-1.05-.37-1.96-.38-3.31,0-.53-.09-1.46-.59-1.72-1.34-.69-.87.39-1,1.2-.03.2-.22.35-.23.39-.2-.49-.29-2.32-.12-2.68.38-.84,2.02-1.89,2.08-3.2Z"/>
          <path class="cls-72" d="M151.8,24.6c.21.12.73.79.98.98l-.25.25c-6.58-4.7-6.61,3.27-6.37,7.84,0-.05-.22-.26-.26-.59-.12-1.29.32-2.87-.23-4.06.12-.97.31-2.59.74-3.43,1.1-2.17,3.51-2.04,5.39-.98Z"/>
          <g>
            <path class="cls-148" d="M171.4,35.87c.34-.11.42-.09.25.25-1.3,1.23-3.85,2.34-5.64,2.21-.25.97-.91,1.03-1.72.74-.96,1.06-2.48,1.62-3.94,1.76-.86.81-1.76,1.12-2.67.93-.53.17-.69.09-.49-.25-.16-.44.08-.71.72-.82-6.19-9.47-4.76.97-2.59,5.55,2.86,6.03,6.4,6.05,4.63-.83-1.5.73-2.87,1.37-3.99-.42-.41-.66-.84-1.9,0-2.26.39-.41.55-.24.49.49.46-.11.62.3.49,1.23.73.28,1.48.17,2.25-.34,1.42-1.01,2.88-1.55,4.36-1.62.11-.91,1.93-1.42,2.7-.98.23-.89,2.17-1.77,2.94-1.23,1.24-1.32,3.58-1.84,5.39-1.72-.06-.79,1.11-.81,1.47-.25.47-.11.63-.03.49.25l.04.33c-.81.43-1.64.82-2.5,1.16.79.78,1.04,1.43.75,1.94.09.35.07.44-.25.25-.93.04-1.71-1.01-1.88-1.89-.85.18-6.38,1.95-6.51,2.32.24.5.18.84-.19,1.04.07.4-.01.56-.25.49-.45.1-.71-.2-.8-.9l-.36.02c1.08,2.84,3.7,13.37,2.28,15.21-.11.14-.24.25-.38.37l-.3-.08c.06-1.71,0-3.4-.19-5.06l-.63-1.06c-.45-3-1.18-5.96-2.16-8.82-.05-.08-1.63.64-1.74.88.36,1.93,1.03,6.38-1.14,7.34-2.32,1.02-4.72-2.28-5.72-4-1.54-2.64-4.26-9.3-1.8-11.97.91-.99,3.01-1.23,3.15.24.73-.48,2.39,1.51,1.96,2.21.57-.13.99.29,1.27,1.27l2.05-.84-1.13-2.11.27-.52c-.8-.22-1.99-2.18-2.37-3.04l.17-.64-.73-.22c-1.3-2.21-2.89-4.18-4.75-5.91l-.16-.74c-.32-.34-.19-.47.25-.25.97-.27,2.85,1.18,2.7,2.21l.6-.06c1.11,1.31,2.09,2.72,3.04,4.15l-.21.57c.96-.09,2.03,1.89,1.72,2.7l.53-.05c-.02.17,1.7,4.06,1.71,3.17l-1.79-3.62.29-.48c-.97-.28-1.71-1.46-1.47-2.45-1.41-.87-2.86-3.03-3.19-4.66-.83-.24-1.56-.84-2.18-1.82-.85-.62-1.35-1.32-1.49-2.1l-.55.18c-1.94-1.63-4.84-3.9-7.18-1.74.36.83.78,2.56-.11,3.03.03.41.07.8.13,1.17-1.47,1.36-2.17,2.93-2.09,4.71l.45.63c.4,11.1,5.84,22.22,12.51,30.94l.03.77.72.06c1.83,2.04,4.06,3.95,6.88,4.3l.48.54c.78-.3,1.03-.22.74.25-5.27,2.6-11.41,4.37-16.8,6.84-2.75.41-5.22-2.11-6.97-3.9-.42-.12-.92-.27-.74-.74-.2-.03-.39-.08-.57-.15-.91-.37-4.8-5.88-4.86-6.86-.01-.19,0-.39.04-.58-.43-.24-.81-.54-1.1-.94-2.1-2.91-5.78-12.44-6.18-16.01-.06-.49.02-.97.18-1.43-.04-.35.04-.52.25-.49l.64.62c2.26,8.81,6.17,18.02,12.18,24.95,4.32,4.98,6.2,5.47,11.73,2.62-11.72-8.78-17.92-24.81-19.1-39.3-.84.61-2.35.25-1.78-.89-.43-.26-.55-1.55-.25-1.96-.15-.52-.32-.68-.49-.49.4.81.66,2.12.25,2.94.24,1.31-1.8,1.16-2.37.12-.66-2.1-1.08-2.02-1.25.23l-.54.15c-.42.25-.4-.36-.25-.74.06-.48-.04-.93.11-1.48.3-1.07,1.44-2.26,1.09-3.26-.06-.18-1.71-.89-1.81-.88-.23.02-.33,1.09-1.1.72-.15-.53.32-.53.49-.73-.13-.55.13-.82.74-.74l.56-.13c1.43,1.06,3.93.05,4.95-1.32l.62-.02c-.47-.13.04-1.74.22-1.98.96-1.3,1.3-.2,1.14.98.32.15.26.24-.14.26.6.6-.69,2.41-1.47,2.21-.66,1.02-1.75,1.63-3.27,1.85-.15.15.48,3.58.57,4.03.3-.09.54-.02.77.16-.06-.48.01-.94.21-1.39-.47-.14-.47-.35,0-.49l-.25-1.23c-1.18-.93.16-1.66,1.18-1.96.43-.65.86-.9,1.27-.74.21-.03.39.02.51.19-.53,2.03-1.4,8.61.4,2.39l.57-.13c-.26-.83.2-1.79.81-2.38l.17-.85c-.15-1.55.89-2.48,1.62-.69l.44-.22c-.78-.44-1.05-.93-.83-1.48-.32.06-.47-.24-.25-.49-.17-.73-.18-1.48,0-2.21-.87-1.87,4.11-4.08,2.53-1.07-1.86.46-2.15,3.08-.57,4.09,1.28.41,2.21,1.24.68,2.08.84-.12,2.07-.6,2.53-1.34,1.22-3.53,3.39-1.05,1.88,1.58-.43.76-1.77,2.23-2.65,1.77-.2.17-.34.33-.23.62-3.47,1.48-.35.93,1.16.01l.29.1v-.6c2.55-1.67,3.08-4.39.7-6.51-.34-.65-.81-1.68-.21-2.21-.62-1.32,1.11-1.28.49,0,1.39.19,1.27-2.3,1.21-3.33l.26-1.08-.57-.21c-.57-1.21-1.19-2.4-1.88-3.57-.37-2.47-1.59-2.49-.56,0l2,3.43c.38,1.09.21,2.14.02,3.28-.45.08-.61-.33-.49-1.23-.16-.56-.17-1.02-.44-1.64-.54-1.22-4.01-5.39-2.01-6.57,1.82-1.08,1.96,1.29,2.41,2.25,1.36,2.93,3.13,4.51,2.08,8.12-.17.58-1.27,2.08-1.2,2.25.45,1,1.62-.27,2.52-.43,5.89-1.02,12.5,8.83,15.05,13.25.97,1.69,1.79,3.46,2.65,5.2,2.43-.69,4.88-1.59,7.35-2.35Z"/>
            <g>
              <g>
                <path class="cls-154" d="M172.38,36.11c.09.03.16.06.2.12.3.51.8,1.44.78,1.84,1-.15,1.41.02,1.23.49-1.77.59-3.64,1.09-5.39,1.72-.49.2-.85-.07-1.08-.81-.74.63-2.37-.24-2.1-1.15,1.85-.71,3.76-1.6,5.64-2.21.17-.06.51.03.74,0Z"/>
                <path class="cls-190" d="M164.3,39.05c1.27-.41.9.73-.07,1.14,1.74.09,2.41.52,2.03,1.31-.86.34-1.89.65-2.7.98-.49-.07-.96-.01-1.41.16-.98-.63-2.43-.1-2.57,1.17-.31.37-1.75.98-2.09.45l-.55.17c-.36-.52-.3-.8-.49-1.23-.61-.88.37-1.56,1.23-1.47,1.99-1.09,4.51-1.84,6.62-2.7Z"/>
                <path class="cls-234" d="M156.95,44.44l.24-.98c1.16-.27.38.42.74.61.59.32.41-.83.25-1.1l.49.73c.95.11.41-.71.61-.98.12-.17.49-.19.57-.3.07-.09-.16-1.82,1.26-1.29l-.98,1.1,1.71-.73c-.24,1.43.89-.05,1.72.98-1.87.78-3.67,1.91-5.57,2.66-.6.14-.77-.3-1.04-.7Z"/>
              </g>
              <g>
                <path class="cls-30" d="M140.53,70.17c.24.27.49.48.74.74-.24.03-.51-.04-.74,0,0-.13-.13-.24-.25-.25-.6-.34-.41-.62.25-.49Z"/>
                <path class="cls-114" d="M135.14,28.27c.64.37,1.45.35,2.42-.07l.28.56c.1.07.23.43.49.6,1.3.85,3.01-.37,4.16-1.09-.05,1.75.07,3.51.28,5.24,1.29,10.46,8.78,29.37,18.74,34.18.52.25,1.71.29.76.82-1.06.59-5.67,2.51-6.79,2.76-2.55.59-6.06-3.33-7.59-5.16-5.59-6.66-10.43-17.28-12.18-25.79-.66-3.23-1.48-8.92-.57-12.05Z"/>
                <path class="cls-101" d="M135.88,15.04c.68-.23,1.57-.25,2.21,0,1.76.23,3.62,1.9,4.41,3.43.23.45.27,1.32.51,1.77.29.54,1.15,1.14,1.46,2.02.91,2.53-.58,4.2-2.46,5.53-.84.29-2.53.2-1.23-.74,1.68-1.06,3.26-2.48,2.45-4.65-.96-.03-.94,1.11-1.35,1.71-.88,1.27-3.37,1.43-4.77,1.97-.1-1.16,1.96-1.37,2.2-1.84.19-.37-.17-.34-.31-.42-.47-.27-.99-.35-1.41-.8-1.13-1.2-1-3.13.24-4.19.54-.47,1.22-.08.99-1.08-1.01.12-2.11,1.3-2.45,2.2-.18.73-.17,1.47,0,2.21.08.22.12.3.25.49.43.78.22.93-.64.67-1.19.73-2.12.34-1.97-1.09-.74-.45.43-1.06.87-.27,1.13-.22.5-1.53-.43-1.68-.36-1.13-.92-2.11-1.75-2.77.38-1.21,1.98-2.29,3.19-2.45Z"/>
                <path class="cls-183" d="M155.97,42.73c-.13,1.3.57,3.08,2.06,2.94.59-.06,1.15-.58,1.7-.78.26-.09.24-.36.53.05.83,1.18,1.22,6.82-1.1,6.27-3.75-.9-7.07-10.43-6.01-13.88.88-2.89,4.5,1.42,5.09,2.78.5,1.16-.12.91-1.03,1.4-.37.41-.78.82-1.23,1.23Z"/>
                <path class="cls-46" d="M160.38,36.36c-.26.81-1.61,2.04-2.45,2.21-.27-.37-1.7-2.03-1.96-2.21.2-1.44,1.45-2.47,2.21-3.68.88,1.33,1.44,2.21,2.21,3.68Z"/>
                <path class="cls-56" d="M133.92,23.37c.94.76,1.17,1.15.98,2.45l-.49-.25c.17.79-.62,1.35-.5,2.05.03.18.68.15.5.65-.28.68-.74,3-1.22,3.31-.67.44-.98-1-.99-1.48,0-1.03.9-3.64.74-4.29-.23-.05-.4-.14-.49-.25.14-.14,1.43-2.08,1.47-2.21Z"/>
                <path class="cls-136" d="M144.45,14.06c-.09,1.23-.28,2.37-.58,3.44h-.4c.02-.16,0-.34,0-.5.05-.82.03-1.59-.17-2.4-.3-1.2-4.36-6.03-2.12-6.63.94-.25.89,1.23,1.19,1.93.59,1.38,1.75,2.77,2.08,4.17Z"/>
                <path class="cls-184" d="M160.38,36.36c.26.49,1.63,2.51,1.36,2.95l-2.82,1.21c-.18-.63-.61-1.44-.99-1.96.58-.97,1.4-1.74,2.45-2.21Z"/>
                <path class="cls-19" d="M153.03,23.13c1.47,1.25,2.49,2.42,3.68,3.92.46.58-.76,1.27-1.23.74-.79-.86-1.79-1.53-2.7-2.21-.43-.01-1.22-.55-.98-.98.51-.62.29-1.32,1.23-1.47Z"/>
                <path class="cls-143" d="M132.94,25.82c-.74-.1-.41.67-.98,1.11-.71.54-1.56.02-1.47,1.59,0,.43.08.84.25,1.23.02.16-.02.33,0,.49.1.56-.22.97-.98,1.23-.51-.77-1.41-3.66-.95-4.38.11-.17,2.8-.71,3.64-1.5.24-.02.42-.04.49.25Z"/>
                <path class="cls-117" d="M159.89,31.7c.42.6-.47,1.2-.98.74-.88-1.34-2.38-3.51-3.43-4.66l1.23-.74c1.21,1.53,2.17,2.99,3.19,4.66Z"/>
                <path class="cls-66" d="M138.57,26.31c.29.09.45.34.49.74-.6.37-1.16.97-1.23,1.72-.46-.33-1.59.5-2.32.49l-.37-.98c.67-2.32,1.63-1.44,3.43-1.96Z"/>
                <path class="cls-6" d="M160.62,35.13c-.41-.82-.12-1.25.74-.98.29.55,2.23,4.21,2.1,4.42l-1.13.38c-.28-.23-1.36-3.21-1.7-3.82Z"/>
                <path class="cls-126" d="M144.45,14.06c.44,1.9.49,4.01-1.1,5.39-.25-.19-.27-.68-.37-.98.22-.23.44-.68.49-.98.55-.59.1-1.58.25-2.28.01-.07.74-.68.73-1.15Z"/>
                <path class="cls-200" d="M140.78,27.05l-.24.49c.62-.1,1-.26,1.47.25-.84.59-2.31,1.83-3.44,1.11s1.99-1.7,2.21-1.84Z"/>
                <path class="cls-100" d="M161.36,34.15c-.22.44-.86.44-.74.98-.42-.75-1.21-1.93-1.72-2.7l.98-.74c.5.81,1.02,1.61,1.47,2.45Z"/>
                <path class="cls-206" d="M141.76,25.33c.11.08.11.16,0,.25-1.09.91-1.72.87-2.7,1.47h-.73s.24-.74.24-.74c.99-.29,2.07-.94,3.19-.98Z"/>
                <path class="cls-147" d="M129.75,31.46v-1.96s.73,1.35.73,1.35l.25-.61c.05.52.81,1.73-.36,1.96-.27-.19-.44-.46-.62-.73Z"/>
                <path class="cls-155" d="M131.71,29.74c-.14.27-.3.11-.49-.49-.12-1-.55-1.27.73-1.71.07.76-.23,1.44-.24,2.2Z"/>
                <path class="cls-178" d="M131.71,29.74c0,.5.07,1.53.25,1.96-.19.13-.32.35-.49.49.14-1.01-.13-1.96-.25-2.94l.49.49Z"/>
                <path class="cls-25" d="M136.37,22.15c-.36-1-.38-1.2,0-2.21v2.21Z"/>
                <path class="cls-24" d="M142.49,24.84c-.34.32-.47.19-.25-.25.12-.23.6-1.5.73-1.22.15.75-.16.98-.49,1.47Z"/>
                <path class="cls-86" d="M142.49,24.84c-.28.42-.39.45-.74.74v-.25c.13-.26.36-.48.49-.74l.25.25Z"/>
                <path class="cls-147" d="M130.73,29.74c-.4-.21-.23-.83-.25-1.23,0,.06.2.78.25,1.23Z"/>
              </g>
            </g>
          </g>
          <path class="cls-157" d="M125.59,59.39c-1.08-1.69-2.9-5.21.24-5.64.4,1.33.92,2.65,1.47,3.92.2.7.21,1-.54,1.2-.2.68-.66,1.18-1.18.51Z"/>
          <path class="cls-70" d="M128.28,60.37c-.63-.02-1.37,1.05-2.45-.25-.06-.07-.1-.51-.25-.74.79-.12.65-.76.8-.91s.8,0,.91-.8c.33.76.96,1.64,1.19,2.38.06.2.02.34-.21.31Z"/>
          <path class="cls-33" d="M138.08,14.8v.25c-.52-.07-1.68-.07-2.21,0,.5-.51,1.51-.15,2.21-.25Z"/>
          <g>
            <path class="cls-25" d="M129.75,16.27c.98.97,1.35,2.14,2.7,2.45.17-.18.17-.51,0-.98.06-.1.17-.16.25-.25.13-.14.79-.71.98-.61.54.27-.26.8-.24.99.02.15.63.38.82.63.3.39.48,1.4.53,1.46.25.24.69.13.85.4.62,1.07.3,2.23-1.09,2.05-.28-.04.02-.62-.39-.51.04.27-.07,1.16,0,1.22.16.16,1.92.11,1.72-.74.2-.25.74,1.5.73.24.43.66.88.8,1.31,1.2.21.2.22.17.16.51l-1.96.98c-.07-.06.84-1.69-.24-1.47.26,1.67-.89,3-1.47,4.41-1.77-.09-.66-2.36.06-3.09.05-.56-.25-.94-.67-1.28l.13-.53c.08-.27.05-1.81-.49-1.23-.07.08-.28,1.27-.74,1.96-.58.88-2.12-.54-1.72-1.23-.61.27-.69.03-.25-.74-.07-.36-.24-.17-.06.02.04.04-.56.2-.43-.51.06-.27-.18-.27-.74,0-1.32-.01-.04-.22-.15-.02-.62,1.16-2.78-.73-2.79-1.69.1-.07.23-.41.49-.6,1.37-1,1.61.01,1.47-2.34.25-.2.35-.9.62-.98s.42.21.61.25Z"/>
            <g>
              <path class="cls-194" d="M130,16.02c-.07.03-.22.25-.25.25-.41.51-.82.75-1.23.74-.01-.21,0-.42-.25-.49.54-1.85.71-1.32,1.72-.49Z"/>
              <path class="cls-101" d="M132.45,17.74c.1.24,1.01.8.98.86-.33.71-.77.17-.98.12-.27-.36-.22-.62,0-.98Z"/>
              <path class="cls-111" d="M133.18,20.43l1.47-.24c.06.85-1.05.77-1.59.98l.12-.74Z"/>
              <path class="cls-137" d="M129.51,21.66l1.59-1.47c.39.32-.67,1.43-.86,1.47-.11.03-.66.03-.74,0Z"/>
              <path class="cls-109" d="M133.18,20.43c-1.89.23.42-1.54.73-1.22l-.73,1.22Z"/>
            </g>
          </g>
          <g>
            <path class="cls-123" d="M126.57,19.94c.79.22,1.32,1.39,1.97,1.6.35.12.53-.45.71-.36.04.02.12.42.26.48.45-.29.69-.29.74,0l.73.27c0,.12-.24.21-.24.22-.13.47-.05.71.25.74.35.61.82.42.93.55.29.35-.42.71.79.68-1.15,1.74-3.16,2.54-5.22,2.15-.64-.12-.63-.52-.9-.68-.11-.06-.43-.25-.49-.25-.52-.19-.38-.44-.49-.74-.22-.58-.38-1.43-.64-1.94-.27-.54-2.22-2.35-.72-2.48.95-.08,1.01.7,2.33-.24Z"/>
            <path class="cls-152" d="M130.98,22.88c-.66.48-1.66,1.62-2.45,1.22-.07-.4.66-.29.74-.61.07-.29-.99-1.02-.12-1.34.53-.2.41.65.73.73.4.1.59-.54.85-.73.01.08.22.68.25.74Z"/>
            <path class="cls-164" d="M128.04,22.39c.12.95-.61,1.35-1.47,1.22l1.47-1.22Z"/>
          </g>
        </g>
      </g>
      <g>
        <path class="cls-67" d="M235.59,51.79c.52,1.15.6,3.01-.49,3.92.27,1.31.23,2.69-.13,4.12-.56,3.11,1.75-.15,2.03-1.36l.56-.07c-.32-.6-.2-2.09.74-2.21-.32-1-.24-1.57.25-1.72.5-1.12.72-.1.49.74-.54,2.27-1.15,5.76-3.45,6.96-.38.2-1.37.37-1.41.43-.3.36-1.01,8-1.26,9.28-.89,4.59-2.56,9.33-5.61,12.91-.14.53,2.01,3.54,2.43,4.24.76.13,2.03,2.03,1.47,2.7.12.27.13.68.25.98.07.23-.01.32-.25.25-.23.16-.46.03-.65-.14l-3.73-6.56c-.75.75-1.42,1.03-1.99.83l-.25-.25.24-.84c4.94-4.49,6.47-11.33,7.58-17.67l2.11-15.68.61-.6c-.42-.54-.46-.62.25-.49.23-.07.32.01.25.25Z"/>
        <path class="cls-241" d="M199.58,98.59c-.41.62-.82,2.18-1.72,2.57-.86.36-1.96-.17-2.33.1-.49.36-1.86,2.89-2.09,3.57-.88,2.67.01,7.36.01,10.43.18.41.21.83,0,1.23-.07.21-.15.2-.25,0-1.58.92-3.61,1.5-5.48,1.04-.29.21,1.86,6.5,2.05,6.8.11.17,2.78,2.41,3.39,1.26l.53.2c.63-.27.74.05.25.49.29,1.18-2.07,1.46-2.9,1-.88-1.29-1.48-1.64-2.46-.14.44.14.76.42.95.85,1.04.36.28,1.43-.74.91.57,1.32-.31,1.42-2.64.3l-.29-.22c.32.51.08.76-.74.74.11.67.02.67-.49.25-.34.32-.47.19-.25-.25,1.62-1.44,3.23-2.81,4.57-4.53l-3.35-11.89.25-.49c.21-.06.39-.03.54.11l.62,2.15c-.27,1.93,5.18.8,5.44.43-.07-2.71-.22-5.43-.44-8.15.19-3.46,1.65-5.48,3.71-8.16l.67-.09c.37-.31.49-.17.25.25.26.37.18.66.05,1.02.42-.16.73-.1.93.21-.11-.81.13-1.05.74-.74-.5-.48.33-1.78.98-1.47l.25.25Z"/>
        <path class="cls-85" d="M232.65,107.65c-.94,5.88-3.19,11.5-4.66,17.27.07.62,2.23,2.8,2.81,3.32,1.5,1.34,4,2.4,4.54,4.4.27,1.03-.77,1.29-.49.25-.56-.49-1.13-1.02-1.71-1.57v-.63c-1.14,0-1.63-.33-1.48-.98-.75.06-1-.18-.74-.74-.36.41-.6.29-.49-.25-.81.03-1.06-.21-.74-.74-.17.2-.45.28-.85.26-1.31.93-1.93.92-1.84-.01l.02-.56c2.22-.4.2-2.09-.44-1.39-.55,2.15-4.02,1.18-4.23-.5-.24.07-.32,0-.25-.25.07-.23.21-.39.25-.49.16-.47.38-.19.49.25.58.14,1.19.34,1.82.59.91-.95,1.75-1.34,2.51-1.15.42-2.5.93-5.56,2.53-7.52-.29-.24-.37-.49-.25-.74l-.08-.51c1.07-2.69,1.89-5.49,2.44-8.39l.58-.41c.25-.21.34-.04.25.49Z"/>
        <path class="cls-113" d="M203.5,11.61c.27.25.11.34-.49.25l-.33.45c-1.46.28-2.15,1.5-2.08,3.65l-.63.26c-1.24-.38-1.56.34-.95,2.17-1.25,2.13-1.27,4.55-.08,7.26l-.35.43c.33.45,0,.61-.98.49l.2.49c-.96,1.51-.09,3.48,1.51,4.16-.2-.78-.12-1.1.25-.98.11.05.19.21.25.49.4.25.43.53,0,.74.19.37.22.88,0,1.23-.03.24-.21.37-.25.49l-2.47-1.66-4.03.4-.36-.45c-.74.17-1.15.09-1.23-.25,1.79-.28,3.6-.48,5.39-.74-.36-1.23-.82-2.23-.19-3.5.25-.5.86-.73.93-1.29.21-1.63-1-4.15-.38-6.49.1-.38.52-.76.58-1.15.09-.55-.24-.93-.11-1.53.38-1.69,1.95-1.33,2.09-1.48.12-.12-.23-2.04.97-3.07.84-.72,1.72-.62,2.71-.35Z"/>
        <path class="cls-13" d="M193.7,116.72c0,.41,0,.82,0,1.23l.25,1.47c0,.33,0,.65,0,.98l.25,1.47c.02.32-.03.66,0,.98l.25,1.23c.4,1.73,1.32,3.12,1.47,5.15.09,1.3.22,1.62-.74,2.45-.36.22-.48.14-.25-.25l-.18-.27c-1.16.55-2.32.89-3.49,1.01,0,.19,0,.34-.08.38-2.45,1.18-5.34,2.02-8.07,1.64l.06.43c.92.07,1.81.16,2.7.25.35-.25.48-.14.25.25-.16.02-.33,0-.49,0-.7.2-1.44.2-2.21,0-.75-.15-1.52.05-1.85-.96-.43-1.31-.03-1.6.63-2.47.35-.3.48-.16.25.25.44,1.58,2.74,1.03,4.19.67,2.07-.53,4.05-1.4,5.98-2.28l.86.14c.07-.46.53-.86,1.39-1.2-.12-.98-.32-1.96-.6-2.92.21-.69.7.52-.3-.05l-.25-.49c-.32-.35-.17-.49.25-.25.12-.42.23-.82,0-1.23-.47-.22-.47-.51,0-.74l-.25-1.47c-.48-.31-.48-.67,0-.98l-.25-1.47c-.48-.31-.48-.67,0-.98l-.25-1.72c-.47-.14-.47-.35,0-.49.09.01.2-.03.25,0,.12-.13.21-.05.25.25Z"/>
        <path class="cls-39" d="M194.92,131.42l.25.25c-.95.82-3.98,1.92-5.33,2.39-1.22.42-2.44.89-3.74,1.04l-.25-.25c-.21-.07-.21-.15,0-.25.06-.14.13-.26.23-.36.2-.19,4.61-1.6,5.28-1.79.1-.03.23.06.38.19.51-.69,2.36-1.55,3.19-1.23Z"/>
        <path class="cls-60" d="M184.63,129.95c.25.76-1.48,2.48-2.21,1.96,0-.02-.23-.16-.25-.25.82-1.07,1.39-1.23,2.21-1.96l.25.25Z"/>
        <path class="cls-61" d="M207.42,79.97c1.38-.13,2.77-.13,4.17,0,0-.17.02-.3.08-.33,1.38-.56,4.51-1.35,6.06-1.73.97-.24,3.7-.91,4.56-.72.38.09.52.72.32,1.06.32.28,2.2,3.14,2.15,3.34-.98,3.31-9.54,6.68-12.93,5.97-.07.39-.3.35-.49,0-.24.13-.56.23-.74,0-1.87-.18-3.76-.21-5.64,0h-.98c-2.08.32-4.89-.51-6.91-1.38-1.77-.75-3.93-1.83-4.85-3.52,0-.88.95-2.85,1.47-3.68-.03-1.7,1-1.69,2.5-1.64,3.63.8,7.28,1.58,10.93,2.34l.29.28Z"/>
        <path class="cls-154" d="M182.43,45.91c.68,2.43,1.24,5.57,1.72,8.09.82,2.25,1.27,4.7,1.23,7.11,1.18,6.63,1.4,14.89,5.39,20.58.43,1.07-.31,1.81-2.21,2.21-2.95-3.81-4.17-9.02-5.07-13.67-1.76-9.08-2.15-18.52-5.47-27.24-.66-1.07,2.63-1.85,3-1.64.21.12,1.54,4.01,1.41,4.58Z"/>
        <path class="cls-98" d="M235.59,40.52c.39-.91,3.09-.02,2.7.98l.33.47c-1.03,3.04-1.67,6.21-2.26,9.37l-.52.45c-.08.21-.17.21-.25,0-.09-.06-.15-.18-.25-.25-.26-2.7.36-5.74,1.72-8.09.09-.29.09-.51-.24-.67.72-.91.11-1.35-1.84-1.32l-1.06,4.04-.55.16c.32,1.81-.16,4.37-1.23,5.88.11,3.33-.49,6.71-1.72,9.8-.41.19-.6-.53-.25-.74h-.25c.14.29.04.4-.25.25-.33.49-.87.42-1.63-.2l-2.55-1.75c-1.12.56-2.32.19-3.6-1.11-.94,4.08-.79,7.95.44,11.63-.31,2.1-.27,3.32.87,5.18l-.38.46c.12.5.03.75-.25.74-.16-1.24-1.22-2.14-1.41-3.37-.18-1.16.26-1.9.18-2.85-.18-2-1.72-4.61-.97-7.13l.98-11.15c.57-.04.43-.08.49.36.13.99-.64,4.05-.38,4.53.19.35,2.99,2.17,3.31,1.95,1.28-3.05,3.32-5.81,4.67-8.81l.12.24c.55.15.25-.4.61-.73.05.16-.1.45.05.68.05.07,1.37.97,1.55.56.36-1.74.72-3.48,1.16-5.21.27-1.03,1.37-3.87,1.4-4.6.38.3.81.2,1.23.25Z"/>
        <path class="cls-95" d="M203.99,87.56c2.5.22,4.95.22,7.35,0,.16,0,.33.01.49,0,.21.07.21.15,0,.25.21.07.21.15,0,.25-.38.67-.84.67-1.23,0-1.96.21-3.92.2-5.88,0-.64.69-1.56.68-2.21,0l-.81-.13c-.25.52-1.22.2-1.39-.36-2.7.22-5.25-1.35-7.4-2.87l-.2-.81c-.7.3-1.15-.38-.74-.98.14.05.25-.14.25-.25,3.33,3.22,7.24,4.37,11.76,4.9Z"/>
        <path class="cls-21" d="M191.98,82.91c.24.26.49.76.74.98-.08.83-1.75,1.57-2.45,1.72-.64-.62-1.13-.96-1.72-1.72.03-.99,1.61-.95,1.67-1.03.15-.19.17-.92.53-1.17.3.42.88.85,1.23,1.23Z"/>
        <path class="cls-106" d="M185.61,60.12c0,.11-.44.61-.25.98-.42-2.36-.78-4.76-1.23-7.11l.25-.74c.31,2.06,1.36,4.8,1.23,6.86Z"/>
        <g>
          <path class="cls-173" d="M208.89,13.08c1.77-.74,3.73.27,4.9,1.59.29.32.37.88.54,1.05.28.26.98.23,1.39.45,2.23,1.21,2.13,3.84,1.98,6.1-.05.81-.64,2.79-.5,3.38.05.21.64.37.88.64,1.02,1.15.57,2.56.36,3.94l4.9.49c-.11.48-.78.36-1.23.25-.02.24-.13.41-.36.48l-3.51-.21c-.39.11-2.81,1.77-1.98,1.96l4.31.37.81.58c.11.45-.58.33-.98.25l-.31.47-4.28-.16c-.66,1.91-1.57,3.31-3.28,4.43l.04,1.37c3.27.04,6.14.11,9.25,1.27,1.28.48,8.47,5.34,8.75,6.34.12.42.07.52-.37.73l-.11.51c.66.65-1.07.88-.63-.02-.41-.16-.4-.36-.31-.7-1.21-1.13-4.32-3.22-5.82-4.16-3.2-2.01-5.55-2.48-9.25-2.37-.14.67-.57,2.66-1.11,3-.19.12-.44.09-.65.07-.34.32-.47.19-.25-.25l-.33-.43c.42-.65.37-1.16-.16-1.53-.82-.22-.73-3.06,0-3.43-.62,1.14-2.8,1.24-4.07,1.23s-3.23-.09-3.77-1.23c.76.42.78,3.02,0,3.43-.1.22-.29.34-.52.26-.32-.11.42,1.15.79,1.56.75.85,1.77,1.3,2.87,1.54l.3.56c.08.4-.6.32-.98.25-.89.79-2.56-.51-3.27-1.27-1-1.06-1.42-2.37-1.64-3.78-4.02.02-6.47.87-9.74,3.12-.74.51-4.83,3.59-4.97,3.97-.17.47,4.33,8.62,4.83,8.62.21,0,2.4-1.6,2.48-1.84l-.43-3.46c-.37-.97.9-1.97,1.3-1.18.43.85,1.1,7.87.74,8.58-.09.17-.2.32-.33.47.1.78.02,1.43-.25,1.96l-.51-.17-.41-4.37c-1.32,1.49-2.58,1.97-3.77,1.43-1.28,1.03-2.58,1.91-3.9,2.66.15.16.18.35.2.56.41,3.17.89,6.68,1.61,9.78s1.61,6.29,3.57,8.54c.45-1.12,1.03-1.79,1.74-2,.34-.32.47-.19.25.25.26.99-.74,3.01-1.47,3.68.31.46.18.6-.25.25-.66.39-1.55-.52-1.23-1.23-.17-.03-.34-.08-.5-.15-2.77-1.28-4.92-16.19-5.25-19.6l.35-.84c-.07-.37-.16-1,.25-.98.53.45,3.8-2.07,3.8-2.3,0-.4-3.47-6.76-3.81-6.96-.41-.25-1.29,1.55-.77,2.04l-.44.35c.05.43-.03.67-.25.74l-.61-.61-1.39-6.67.29-.8c-.06-.39.02-.56.25-.49.92,1.19,1.47,2.67,1.66,4.45.45-.04.64-.51.56-1.41,4.87-4.77,10.77-8.43,17.95-7.95.07-.46,0-.92-.32-1.28-1.48-1.16-2.51-2.48-3.13-4.27-5.32.52-10.83,1.2-16.04,2.46.16,1.05-.69,2.71-1.43,1.38-.31-.24-.31-.75,0-1.52-.43-.81-.59-1.53-.49-2.16-.31-.3-.17-.35.25-.25.57-.26,1.05.08,1.43,1.02,1.63-.48,3.19-.65,4.7-.53,2.07-.89,4.3-1.37,6.7-1.44,1.81-.07,3.5-.32,5.06-.76-.02-.35.06-.52.25-.49.07-.21.15-.21.25,0l.54.43c.74,5.78,7.52,8.25,11.76,4.22h.69s.16-.48.16-.48c1.2-2.14,1.75-4.83,2.06-7.36-.29-.13-.33-.41-.27-.72-.21-.71-.22-1.49,0-2.21-.65-.08-.62-.3,0-.49.21-.88.21-1.81,0-2.7-.2-.13-.14-.31,0-.49-.29-.37-.33-1.08.25-.74l.58.33.18,2.69c.54-1.9,1.56-6.5-.38-7.81-1.59-.32-2.37-1.04-3.18-2.4-.78-.38-1.23-.84-1.37-1.39-.16-.04-.27-.07-.25-.25-.69-.05-1.34-.13-1.96-.25Z"/>
          <g>
            <path class="cls-233" d="M225.06,30.97l-1.23.25c-.26.83-1.87.72-1.72-.25.63,0,.96-.22,1.23-.25.5-.04,1.41-.14,1.72.25Z"/>
            <g>
              <path class="cls-210" d="M208.89,13.08c.87.04,1.11-.09,1.96.25-.85-.11-2.03.29-2.7-.25.24.02.49-.01.74,0Z"/>
              <path class="cls-198" d="M215.99,31.21c.35-1.39.17-3.08.62-4.42.14-.42.11-.68.69-.45,1.82.71.75,4.97-1.31,4.87Z"/>
              <g>
                <path class="cls-192" d="M185.61,60.12c-.6-2.22-1.01-4.51-1.23-6.86-.32-2.1-.25-1.82,1.35-3.18l4.25,7.76c.04.48-3.13,2.58-3.72,2.82-.66.26-.59-.09-.65-.53Z"/>
                <path class="cls-187" d="M215.01,26.07c0-.9-.01-1.8,0-2.7.41.57.42,2.07,0,2.7Z"/>
                <path class="cls-124" d="M215.01,28.76c-.41-.42-.41-1.8,0-2.21v2.21Z"/>
              </g>
            </g>
          </g>
        </g>
        <path class="cls-50" d="M232.16,51.55c.55-.41,1.08-.91,1.6-1.5.51.02,1.49,1.38,1.34,1.99-1.96,10.48-1.59,27.76-10.54,34.79-5.42,4.26-13.95,4.8-20.58,4.41-1.5-.09-2.95-.41-4.41-.74.26-.59.87-1.01,1.84-1.25-.28-1.26.09-1.66,1.1-1.2.73-.03,1.47,0,2.21,0,1.95.2,3.93.21,5.88,0,.41,0,.82.01,1.23,0,.38-.09.79-.17,1.23-.25,8.65-1.06,12.91-5.63,15.09-13.75,1.09-4.05,1.58-8.28,2.01-12.44l.29-.26c.51-3.28,1.1-6.54,1.72-9.8Z"/>
        <path class="cls-175" d="M195.9,97.36c-.2-.18-.32-.44-.65-.69-2.55-1.98-6.4-3.66-9.64-3.23l4.04-7.34c3.79,3.5,8.51,5.12,13.6,5.63-1.35,2.16-2.51,4.5-3.92,6.61-.3.45-.66,1.1-.98,1.47l-.49.32c-.11,0-1.19-1.53-.98-1.79-.43.09-.91-.55-.98-.98Z"/>
        <path class="cls-190" d="M200.31,87.56c-.44.67-1.21,1.1-2.31,1.28.13.82.01,1.22-.88.92-3.28-1.12-4.39-1.78-6.86-4.17.52-1.12,1.54-1.12,2.45-1.72,2.12,1.89,4.9,2.93,7.6,3.68Z"/>
        <path class="cls-21" d="M202.52,88.05c-.26,0-.98-.11-.98.12,2.52.36.71.46.38.84-.08.09.11.42-.13.61-.58.48-1.59.48-2.21.87-1-.23-1.52-.42-2.45-.74.84.18.11-1.12.53-1.44.15-.11.58.05.75-.04.52-.27,1.08-.71,1.91-.72.6-.01,1.64.24,2.21.49Z"/>
        <g>
          <path class="cls-177" d="M188.55,83.89c.65-.24,2.08,1.06,1.72,1.72l.68-.03c1.66,1.7,3.62,2.87,5.89,3.57l.29.62c.65-.37,2.2-.18,2.45.74,1.43-.15,3.33-.25,4.41.74l.74.25c.21.07.21.15,0,.25-.39.03-.72-.01-.99.35-1.25,2.26-2.74,4.39-4.15,6.51-.34.32-.47.19-.25-.25l.14-1.12c1.04-1.67,2-3.37,2.88-5.11-4.6-.56-9.04-2.18-12.56-5.24l-3.29,5.97c2.03.03,3.97.59,5.81,1.44,1.09.51,4.05,1.89,3.6,3.07.32.34.19.47-.25.25-1.13-.02-3.22-1.16-3.68-2.21l-.45.11c-1.37-.57-2.76-.93-4.19-1.07-.67,1.43-1.22,2.91-1.65,4.44l-.58.2c-.13.32-.03.59.26.82-1.32,4.06-.5,8.13.75,12.09l-.28.81c.05.37-.03.54-.25.49-.92-2.93-2.29-7.06-2.19-10.13.09-2.61,1.89-5.07,2.15-6.96.09-.67-.89-1.33-.65-2.57l4.28-7.9c-2.4-3.01-3.98-6.22-5.06-9.92-.65-.17-1.13-.91-.4-1.25-.43-.07-.46-.22-.09-.46-.84-3.51-1.3-7.41-1.74-11-4.26-.53-5.08-5.62-5.61-9.09-.09-.48-.01-.73.25-.74.66.77,1.07,1.81,1.22,3.12.51,1.01.67,1.92.5,2.76l.66.28c1.44,3.08,3.05,3.74,1.68-1.1l.11-2.12c-.3-.37-.6-.77-.73-1.24-.57-2.06-2.62-9.59-2.4-11.03.04-.24.11-.48.19-.72,0-.27.08-.35.25-.25.99,1.11,1.61,2.5,1.88,4.18,1.59,6.96,2.83,13.98,3.72,21.07.94,5.12,1.91,10.39,4.87,14.75l.06.91Z"/>
          <path class="cls-90" d="M184.14,75.8c-.5-.24-1.43-.14-1.23.49-.17-.61-.28-1.55-.98-1.47.08-.83,2.23.76,1.72-.74.11.47.34,1.21.49,1.72Z"/>
          <path class="cls-144" d="M180.71,56.2c.36,2.03.78,4.06.98,6.12-2.12.18-2.73-1.62-3.43-3.18,1.74.73,2.03-1.92,2.45-2.94Z"/>
          <path class="cls-94" d="M186.35,93.93c.16.15-.35,1.18-.73,1.22-.58-.74.26-1.66.73-1.22Z"/>
        </g>
        <path class="cls-175" d="M224.81,87.07c.3-.22,2.07-1.56,2.2-1.47l4.17,7.35-.25.25c-3.43-.58-9.74,2.78-11.68,5.6-.34.5-.15,1.19-.81,1.01l-4.77-7.6-.13-.72c3.39-.35,6.97-1.44,9.88-3.23.65-.4.96-.85,1.4-1.18Z"/>
        <path class="cls-74" d="M193.21,116.47c0,.16,0,.33,0,.49l.25,1.72c0,.33,0,.65,0,.98l.25,1.47c0,.33,0,.65,0,.98l.25,1.47c0,.24,0,.49,0,.74.22.39.15.81,0,1.23,0,.01-.2.21-.25.25-2.05,1.76-2.35-.46-4.28-.98l-2.34-7.71c.76-.21,1.47.16,2.32.12,1.24-.05,2.5-.77,3.5-.93.23-.04.29.19.31.2Z"/>
        <path class="cls-55" d="M189.53,127.99c-1.14-.51-.43-1.36.6-.87l1.76,1.93c1.16.31,1.68.77,1.56,1.39-2.29,1.09-8.59,4-10.86,2.65-.77-.46-.24-.69-.17-1.18.79-.49,1.51-1.41,2.21-1.96.13-.1.36-.14.49-.25.49-.46,1.38.02,1.72.49.19,0,.27-.07.25-.25-.48.02-1.83-.33-1.23-.98,1.19-.61,1.63.52,2.69.73.58-.55-1.75-1.11-1.71-1.47,1-.46,1.8.03,2.69.49-.01-.24.03-.5,0-.73Z"/>
        <path class="cls-231" d="M193.94,126.27c.17-.11.67-.55.73-.49.03.98.79,2.66.64,3.57-.1.62-1.41.87-1.86,1.09-.39-.48-1.61-.74-1.9-1.04-.53-.55-.19-.43-1.1-1.15-.28-.22-.55-1.13-1.16-.75-.1.06.23.36.24.49l-1.72-.49c.42-.89,1.44-2.35,2.54-1.69s.36,1.62,2.57,1.03c.52-.14.65-.33,1.02-.57Z"/>
        <path class="cls-227" d="M197.62,100.55c-1.34.7-1.83-.1-.98-1.23.5-.81,1.51.65.98,1.23Z"/>
        <path class="cls-91" d="M196.88,98.34c.12.14.4.23.61.49.33.42.2,1.14.86.98-.09.11-.69.71-.74.74-.09-.91-.32-.92-.98-1.23-.08-.03-.15-.19-.25-.25.1-.14.15-.34.25-.49.06-.1.16-.17.25-.25Z"/>
        <path class="cls-60" d="M185.86,128.97c-.13.61.59.51,1.23.98.32.32.19.41-.25.25-.56-.22-1.09-.51-1.72-.49.25-.18.62-.67.74-.74Z"/>
        <path class="cls-79" d="M229.71,117.21c-.83,2.57-1.68,5.16-2.24,7.81-2.27-.22-1.66,2.28-3.99.98-.38-.21-.43-.5-.64-.7-.03-.15.04-.36,0-.49v-.49c.08-.42.17-.83.25-1.23,0-.24-.02-.49,0-.74l.25-1.23c.03-.32-.04-.66,0-.98.17-.38.25-.79.25-1.23.06-.38-.07-.87,0-1.23l.25-1.47c.85.07,1.53.5,2.39.67,1.22.24,2.37-.03,3.49.31Z"/>
        <path class="cls-242" d="M222.36,125.78c.86.68,1.89,1.39,3.07,1.25.59-.07.25-.63.85-1.12,1.19-.97,1.96.5,2.69,1.34l-1.96.98c-.27.33-.74.56-1.4.69-.52,1.04-1.11,1.55-1.79,1.51-.5-.24-1.94-.28-2.17-1.15-.2-.73.54-2.68.7-3.5Z"/>
        <path class="cls-213" d="M229.71,127.99l.21.55c-.86.17-1.26.48-1.19.92.84-.17.69.15.24.75.33.7-1.13,1.86-1.96,1.7-1.15-.41-2.1-.95-3.19-1.47,1.35-1.24,1-2.51,3.19-2.21.04,0,.14.28.54.21.82-.14,1.04-1.03,2.16-.46Z"/>
        <path class="cls-45" d="M230.45,128.72c.14.1.35.14.49.25.19.31.38.61.74.74.41.32,1,.58,1.47.98l-.08.58c-1.55-.27-1.91.29-1.07,1.67l-.32.19c-1.85-.24-2.92-.61-4.66-1.23.38-.5,2.58-1.82,1.72-2.45-.24-.61,1.28-1.2,1.72-.74Z"/>
        <path class="cls-10" d="M233.14,130.68c.68.57,1.77,1.22,1.72,2.21-1.5.18-1.15.51-3.19.25l.12-.25c-1.03.1-.37-.16-.44-.58-.05-.3-.42-.62-.31-.9.48-1.13,1.41-.21,2.09-.73Z"/>
        <path class="cls-52" d="M230.94,128.97c.22.16.45.51.74.74-.54-.19-2.27.9-2.45.73-.76-.69,2.04-.74,1.71-1.47Z"/>
        <path class="cls-229" d="M229.71,127.99c.13.07.48.55.74.74-.64,0-1.29.25-1.72.74-.06-.05-.35.04-.49,0-.12-1.11,1.65-.58,1.47-1.47Z"/>
        <g>
          <path class="cls-188" d="M222.36,125.78l.36.6c-1.03,2.24-.72,3.39.93,3.47l.18.58c.95-.37,2.78.56,3.19,1.47.74-.25,1.58-.15,2.5.31.92.16,1.53.34,2.15.92l.35-.45c.3-.08,2.74-.21,2.83.21.1-.01.6.72.49-.25.24.91.35,1.77-.8,2.27-2.56,1.11-8.84-1.28-11.37-2.47-.82-.38-2.05-.8-2.28-1.76-.02-.07.01-.16,0-.25l.25-1.96c.23-1.24.71-2.02.98-2.94.08.08.15.17.25.25Z"/>
          <path class="cls-54" d="M220.89,130.44c-.12-.89.12-1.3.25-1.96-.08.61.24,1.54-.25,1.96Z"/>
          <path class="cls-172" d="M235.1,133.62c-.98,1.62-3.8.97-5.39.61-1.07-.24-7.19-2.49-7.73-3.05-.3-.32-.43-.53-.36-.99,4.2,1.84,8.72,4.45,13.47,3.43Z"/>
        </g>
        <path class="cls-203" d="M191.25,132.15c.93-.33,1.4-.14.49.49-1.86.76-3.85,1.74-5.88,1.96-.84.2-1.74.2-2.7,0-.75-.21-1.3-.11-1.22-1.22,2.87,1.33,6.51-.14,9.31-1.23Z"/>
        <path class="cls-196" d="M194.92,131.42c-.57.4-2.41.91-3.19,1.23.06-.52.03-.55-.49-.49,1.37-.53,2.75-1.24,4.04-1.96.37.21-.18,1.09-.37,1.22Z"/>
        <path class="cls-142" d="M185.86,134.6v.25c-1.04.08-1.74.02-2.7-.25.87-.06,1.84.09,2.7,0Z"/>
        <path class="cls-95" d="M193.45,118.68c-.42-.33-.25-1.18-.25-1.72.43.33.24,1.18.25,1.72Z"/>
        <path class="cls-95" d="M193.7,121.13c-.41-.27-.24-1.01-.25-1.47.41.27.24,1.01.25,1.47Z"/>
        <path class="cls-95" d="M193.94,123.58c-.41-.27-.24-1.01-.25-1.47.41.27.24,1.01.25,1.47Z"/>
        <path class="cls-95" d="M193.94,125.54c0-.41,0-.82,0-1.23.52.36.24.83,0,1.23Z"/>
        <path class="cls-127" d="M223.59,117.7c.04-.46-.19-1.19.25-1.47.22.59-.17,1.08-.25,1.47Z"/>
        <path class="cls-127" d="M223.1,122.35c.04-.53.23-1.05.25-1.23-.01.39.15,1.02-.25,1.23Z"/>
        <g>
          <path class="cls-22" d="M204.97,74.09l1.22.37c-.34.42-.87.26-1.18.78-.37.6-.16,1.76-.32,2.01-.09.15-2.53.53-2.91,1.01-1.67-.34-3.79-1.07-5.39-1.23l.98-.24c-2.21.35.28-1.76.75-2.56.2-.34.19-1.07.48-1.12,1.78.87,3.85,1.09,6.22.66l.15.32Z"/>
          <g>
            <path class="cls-28" d="M195.17,60.37c.04-2.96-.48-5.88-.74-8.82-.54-.03-.45-.09-.5.37-.09.9.65,3.67.39,4.27-.15.35-2.78,2.29-3.15,2.19-.41-.1-2.29-3.55-2.66-4.22-.35-.63-2.66-5.05-2.54-5.31,3.32-2.26,6.81-5.99,10.86-6.79,1.63-.32,3.33-.23,4.95-.56.05,2.86,1.61,5.01,4.41,5.64,2.35.09,4.41-.31,6.13-1.96.87-1.14,1.24-2.2,1.23-3.68,1.42.38,2.9.1,4.28.25,4.72.51,7.99,4.32,11.86,6.65.07.12-.14.77-.22.94l.06.51-3.96,7.24c-.37,1.75-1.66,1.64-3.87-.32-.19.03-.44.06-.56.24-.27.4-.77,8.62-.32,9.64.73,1.84.94,3.76.63,5.76.64,1.16,1.02,2.3,1.16,3.41.6,1.13.1,1.93-1.32,1.49-2.67.33-5.3.98-7.89,1.96-1.87.45-3.78.53-5.73.23-1.76.32-4.37-.32-5.88-1.23-.26-.46-.04-.75.68-.89,1.45-.05,2.1-.7,1.95-1.96.36-.48.55-.92.56-1.31.06-.49.3-.47.49,0l1.23-.25c-.04-.38.42-.39.74-.25.07-.39,3.12-1.19,2.97-1.14-1.23.48-2.46.78-3.7.9-2.31.58-5.98,1.07-8.09-.25.16,1.09-.34,2.16-1.52,3.2.63.54.4.78-.69.72,0,.17-.02.31-.06.32-.22.05-2.23.3-2.34.24-.3-.15-.45-2.04-.05-2.28l-.06-.44c.94-1.83,1.35-3.06.56-5.06.85-3.02,1.09-6.16.72-9.44Z"/>
            <g>
              <path class="cls-104" d="M193.94,75.31c.07.51-.2,1.53.24,1.86.13.1,1.67-.19,2.21-.14.46.06.79-.06,1.01-.35.66-.07,4.08.84,4.38,1.57,1.98.41,3.83,1.08,5.88,1.23.21.07.21.15,0,.25.08.13,0,.21-.25.25-.84-.09-1.67-.16-2.5-.32-1.75-.33-9.37-2.73-10.42-1.83-.05.05-.69.99-.8,1.16l-.25-.25c.44-1.08-.28-2.08.25-3.92.21-.07.3.09.25.49Z"/>
              <path class="cls-102" d="M193.94,75.31c-.01-.08-.26-.3-.25-.49.23-.8.94-2.23.97-2.84.03-.69-.5-1.35-.5-2.18,0-1,.61-1.8.73-2.72.19-1.44-.03-3.25.02-4.76.01-.43.24-1.21.25-1.96l.51,5.02c.24,1.42-.95,3.14-.95,4.41,0,.75.53,1.52.46,2.45-.07.99-1,2.09-1.24,3.07Z"/>
              <path class="cls-107" d="M212.32,45.18c-1.61,2.12-3.65,2.52-6.13,1.96.4.19.81-.22.98-.25,1.64-.25,3.82-.42,4.9-1.96l.25.25Z"/>
              <path class="cls-104" d="M222.85,78.01c.32.36.17.5-.25.25-.12-.2-.45-.62-.65-.69-1.66-.54-7.87,2.08-10.37,2.4-1.35,0-2.66-.08-3.92-.25v-.25c5.59.38,7.32-1.53,11.99-2.34.81-.14,2.02.04,2.55-.14.59-.2.32-.81.4-1.19.03-.14.36-.42.25-.74.99.13.98,2.79,0,2.94Z"/>
              <path class="cls-83" d="M211.09,75.07c2.23-.24,4.38-.72,6.49-1.47.43.37-.19.64-.47.76-3.07,1.3-7.62,1.45-10.92,1.45.04-.23-.06-.56,0-.73,1.64-.08,3.28-.08,4.9,0Z"/>
              <path class="cls-97" d="M206.68,73.35l9.31-3.18c-2.41,1.82-5.64,2.74-8.57,3.43-.37.02-.62-.07-.74-.25Z"/>
              <path class="cls-201" d="M206.68,73.35c.27,0,.62-.07.74.25-.27.06-.56.21-.74.25l-1.23.25c-.16.01-.33,0-.49,0-1.42.07-4.3.19-5.56-.2-.47-.15-.85-.12-.81-.78,2.66,1.01,5.44.21,8.09.25Z"/>
              <path class="cls-29" d="M208.89,49.09l3.8-2.2c.88-.59,1.15-2.02,1.72-2.69.29-.34.6-.06.6.12,0,.13-1.06,1.89-1.26,2.16-1.09,1.41-3.04,2.64-4.86,2.61Z"/>
              <path class="cls-37" d="M201.05,43.95c.32,1.33,1.35,2.76,2.47,3.54.68.47,1.68.65,2.19,1,.39.27,0,.6-.12.61-.95.05-3.44-2-4.04-2.81-.34-.45-1.46-2.05-.49-2.33Z"/>
              <path class="cls-38" d="M211.09,75.07c-1.74.19-3.13.36-4.9,0,.15-.42,2.92-.26,3.56-.25.41,0,1.09-.16,1.34.25Z"/>
              <path class="cls-22" d="M206.68,73.84c-.42.08-.61.2-1.23.25.21-.4.83-.23,1.23-.25Z"/>
            </g>
          </g>
        </g>
        <path class="cls-177" d="M230.2,60.61l.25.74c-1.74,11.22-2.11,25.93-17.4,26.46-.39.15-.85.22-1.23,0v-.25c4.55-.32,9.87-2.13,12.5-6-.71-.94-1.16-2.39-1.72-3.31.05-.09.23-.19.25-.25.14-.18.31-.25.52-.17l1.49,2.42c3.19-5.49,4.33-12.73,4.45-18.96l.4-.44c0-.19.05-.27.25-.25.07-.21.15-.21.25,0Z"/>
        <path class="cls-7" d="M204.97,87.56c1.87-.2,3.76-.18,5.64,0,.24,0,.49.01.74,0-.26.41-.93.24-1.34.25-2.07.03-4-.01-6.01-.25h.98Z"/>
        <path class="cls-218" d="M211.58,79.97c-1.8.23-2.4.19-4.17,0,.03-.12.13-.23.25-.25,1.03-.15,2.97-.09,3.92.25Z"/>
        <path class="cls-236" d="M210.6,87.56c-1.87.06-3.77,0-5.64,0,1.67-.41,3.97-.41,5.64,0Z"/>
        <g>
          <path class="cls-124" d="M203.01,11.86c.81.15,2.15,1.46,3.12,1.66,1.47.3,3.43-.1,4.97.06,2.58,1.11,1.86,1.83,3.05,2.71.8.59,1.69.1,2.48,1.44,1.65,2.79-.27,7.6-.88,10.55-.43.06-.23-.56-.24-.85-.07-1.68.22-3.67-.25-5.27l-.34-.06c-.44-1.77-2.55-2.17-4.08-1.66l-1.7-.24c-1.18.9-2.57.76-4.16-.42-.78.23-1.77-.08-2.45-.58v.26c-.02.45-.52.89-1.5,1.32-.49.55-.97,1.05-1.44,1.49.18.03.32.06.33.11.05.47.07,5.45,0,5.73-.02.08-.16.12-.33.16-.05.28-.39.45-.45.31-.1-.25-.76-2.15-.78-2.27-.01-.07.1-.15.25-.24-.66-1.38-1.28-4.73-.87-6.39.16-.67.78-1.11.83-1.36.09-.45-.53-.92-.29-1.75.47-1.62,1.97-.69,2.05-.79-.28-1.81.43-4.34,2.7-3.92Z"/>
          <g>
            <path class="cls-240" d="M202.52,19.45c-.39-.24-2.1-1.63-.74-1.71.34,1.11,1.5,1.98,2.7,1.96.4-.35-1.91-1.69-1.1-2.45,1.1,1.82,2.73,3.41,5.02,3.18l-2.45-2.08c.04-1.05,1.24.59,1.6.85.45.34,1.07.8,1.59.99.68.25,1.2.15,1.72.49-.3.87-3.31,1.48-3.68.49-.51.7-2.2-.2-2.21-.98-.97-.41-1.4-.1-2.45-.74Z"/>
            <path class="cls-30" d="M208.15,13.08l2.7.25c.09.03.16.21.25.25-.66.66-2.7.61-3.74.55-1.67-.1-3.57-.81-4.35-2.26l.49-.25c2.06.55,1.84,1.29,4.66,1.47Z"/>
            <path class="cls-12" d="M216.48,19.21c.08.08.65,2.35-.24,1.96.14-.07-.52-2.76.24-1.96Z"/>
            <g>
              <path class="cls-187" d="M215.26,22.15c-.32.12-.23.47-.25.74h-.25l-.54-.24c-.25-1.64-1.64-1.77-3.02-1.52l-.36-.44c-1.02.1-1.59-.06-1.72-.49h1.96c-.39-.59-1.39-.57-1.84-1.22-.24-.35-.15-.65.25-.49.51.19,1.42,1,2.15,1.28,1.63.61,2.94.09,3.61,2.39Z"/>
              <path class="cls-76" d="M204.97,20.19c0,.45-.5.45-1.47,0l-.35.47c-2.43.71-3.38,2.76-2.84,6.15.68.51.71,1.71,0,2.21-.19.04-.66-.06-.74,0-.04.03,0,.35,0,.49.14.24.18.51,0,.74-.42.16-.17.74-.25.98l-.59-.25c-.06-1.72-.44-3.18-1.13-4.4.31-.28.7-.21.98-.49.27.56.66,2.11.74,2.2.03.03.16-.01.24,0v-6c0-1.09,2.19-2.27,2.94-2.82.86.34,1.59.39,2.18.12l.27.61Z"/>
            </g>
          </g>
        </g>
        <path class="cls-7" d="M210.6,88.05c-1.75.41-4.13.41-5.88,0,1.96-.01,3.92.02,5.88,0Z"/>
        <path class="cls-225" d="M213.05,87.81c-.36.35-.79.23-1.23.25v-.25c.41,0,.82.01,1.23,0Z"/>
        <path class="cls-64" d="M187.08,129.95c.18.13.49.21.49.49-.41.15-.55-.17-.73-.24l.25-.25Z"/>
        <g>
          <path class="cls-158" d="M179.49,31.95c.35.3.03.46-.98.49.27.43.35.98.24,1.66.59,0,1,.19,1.23.55.28-.66.78-.72.98,0,.3-.72.93-.49.74.25l-.25.25-.27.45c-2.05-.08-4.05.1-.68.62.78.31.92,1.34-.02,1.14l-.33.49c-1,.12-2.06.61-2.5,1.56.09.85.19,1.83-.84,1.13-1.08.09-.85-1.59-.05-1.93.03-.01.03.55-.19-.03-.14-.06-.29-.24-.49-.25.02-.77,1.07-1,1.72-.74.14-.23-.11-.39-.74-.49-.42.94-1.99,1.26-2.7.49-.31.19-.42.08-.25-.25-.63-.25-.93-1.68-.25-1.96l.15-1.05c-.5-.2-.1-.62.34-.67l.46.28c.23,3.94,1.27,3.53.25-.2l.52-.32c-.07-.36.24-.51.49-.25.49.27.75.9.77,1.89.36,2.02.9-2.24-.28-2.38-.44.26-.6.33-.49-.25.97-.24,1.12-.05,1.84-.12.41-.04.77-.55,1.59-.37Z"/>
          <path class="cls-232" d="M176.3,51.79l-.25.98c-.24-.06-.22-.29-.25-.49-.06-.49-.19-.85-.25-1.23-1.03-1.67-1.33-4.26-.74-6.13,0-.08,0-.16,0-.25l-.25-1.47c0-.32-.04-.69,0-.98,0-.05.2-.15.25-.25l.57.07c.71,3.06,1.15,6.17,1.34,9.34l-.44.39Z"/>
          <path class="cls-132" d="M232.9,106.67l-.25-.98c-.26-.13-.4-.38-.4-.75l.4-3.17c-.78-.51-.98-1.41-.49-2.21l.25-.49c.81,2.6,1.62,4.8.49,7.6Z"/>
          <path class="cls-148" d="M176.55,32.68c.35.56.11.72-.49.49-.15.08-.34.2-.49.25-.06.75-.74.52-1.23.25l-.49,1.72c-.48-.13-.47-.35,0-.49-.12-.6-.44-.76-.98-.49.32.33.16.47-.25.25-.27.24-.38.11-.25-.25.04-.08-.09-.37.03-.45.18-.13.72.03,1.03-.07s.39-.61,1.15-.94l1.23-.25c.07-.02.17-.23.25-.25l.49.25Z"/>
          <path class="cls-232" d="M176.55,53.26l-.25.74c-.04-.23-.2-.46-.25-.98,0-.35.07-.59.25-.74.72.06.85.56.25.98Z"/>
          <path class="cls-132" d="M232.9,106.92c-.04.41-.23.62-.25.74l-.25-.49c-.61-.42-.47-.9.25-.98.16.06.25.3.25.74Z"/>
          <path class="cls-177" d="M176.3,52.28l-.25.74c0-.08,0-.16,0-.25,0-.32-.12-.81.25-.98.67.09.6.22,0,.49Z"/>
          <path class="cls-85" d="M232.9,106.67c0,.08,0,.17,0,.25l-.25-.74c-.65-.09-.61-.28,0-.49.36.17.25.66.25.98Z"/>
          <path class="cls-158" d="M175.81,32.68c-.28.38-.8.25-1.23.25.65-.28.84-.14,1.23-.25Z"/>
          <path class="cls-3" d="M223.59,114.51c.02.49-.01.98,0,1.47.32.15.7-.25.73-.24l.46-.4c1.48.73,2.87.68,4.46.61l.23.52c.06.01.26.33.49.25.13.32-.23.45-.24.49-.62.53-2.48.36-3.38.2-.76-.13-2.31-.45-2.5-1.18l-.25,1.47c.66.31.7.93,0,1.23.01.43-.07.84-.25,1.23.7.18.63.67,0,.98l-.25,1.23c.57.24.57.49,0,.74-.07.21-.15.21-.25,0-.07.21-.15.21-.25,0,.01-.08-.01-.17,0-.25.18-.38.26-.79.25-1.23.03-.24-.03-.5,0-.74.17-.38.25-.79.25-1.23.03-.32-.03-.66,0-.98l.25-1.72c0-.77-.2-1.88.25-2.45Z"/>
          <path class="cls-167" d="M240.74,43.22c.03,2.61-.53,6.44-.98,9.07-.17.98-.51,1.98-.74,2.94.01-.58.17-.85-.49-.74-.58-.66-.3-1.83.49-2.21l.06-.5c-.67-.75-.27-1.79.43-2.44.02-.39,0-.73-.37-.94.17-2.08.42-4.15.74-6.22l.6-.44c.63-.33.4.96.25,1.47Z"/>
          <path class="cls-182" d="M176.55,38.56c.11.04.34-.03.49,0-.45.76-.66,1.11-.24,1.96.89-.2,1.85.77.98,1.47.4.05.4.46,0,1.23.84,4.34,2.16,8.51,2.94,12.99.21,1.57-.73,4.68-2.45,2.94-.91-2.03-1.3-3.68-1.72-5.88-.07-.37-.21-.79-.25-.98-.03-.15.03-.34,0-.49-.41-2.46-.55-7.93-1.47-9.8-.39-.8-1.19-1.41-1.46-2.33l3.17-1.1Z"/>
          <path class="cls-209" d="M177.04,37.09c.66.08.9.24.74.49-.51.26-1.18.56-1.72.74-.34.11-.98.08-1.47.25-.4-.29-.79-.17-1.23-.49.14-.35.63-.51.98-.49.73-.34,1.02.11,1.54-.03.55-.15.13-.44,1.16-.46Z"/>
          <path class="cls-18" d="M207.17,46.89c-1.9-.33-3.45-1.15-4.29-2.94-.19-.4-1.11-2.71,0-2.45.47.11.24,1.36.86,1.47v-3.43c2.72,1.03,5.11.94,7.84,0v3.43c.94.27.29-1.28.49-1.47h.98c.18.16-.71,3.05-.98,3.43-.58,1.59-3.41,2.49-4.9,1.96Z"/>
          <path class="cls-226" d="M213.3,23.86c-.5-1.08,1.15-2,1.47-.98.07-.21.15-.21.25,0,0,.16,0,.33,0,.49.21.89.21,1.81,0,2.7v.49c-.21.71-.21,1.49,0,2.21.23.23.63.21.69.28.38.43-.95,5.87-1.38,6.75-.37.75-.75,1.01-1.27,1.55-.49-.04-.93-.2-.98-.74l.51-1.93c-.13-.04-.23-.07-.23-.11.03-1.55-.02-2.01-2-2.38-.61.06-1.1-.02-1.47-.24-.32-.17-.48-.41-.49-.74-.56-.08-.28-.88.25-.49.31.12.2-.08.14-.05-.09.05-.04-1.71.26-1.74,1.01.88,1.61,1.06,1.8.56l.17-.23c2.2.2,3.35-2.46,1.28-3.61l.02-.32c-.72,0-1.13-.16-1.23-.49.32-.58,1.06-.9,2.21-.98Z"/>
          <path class="cls-146" d="M200.31,29.01l.49.29c-.21,1.42.21,2.53,1.54,3.1l.67,1.02.2.31c-.52,1.71-.12,2.53,1.22,2.48,1.74-.4,3.3-.27,4.7.39.52-.07.85.01.98.25l1.7-.54.26.3c.19-.02.63.21.98,0v.73c-4.68,4.91-12.46,2.07-12.98-4.66-.07-.4-.15-.8-.25-1.23,0-.24,0-.49,0-.74l-.25-1.23c-.95-.5.33-1.6.74-.49Z"/>
          <path class="cls-208" d="M181.45,35.13c.27.1.95,1.72.97,2.11.05.83-.34,1.01-.48,1.56-.02.08.02.17,0,.25-.94.61-2.29-.94-1.47-1.72,0-.05.41-.41.01-.62-.43-.23-2.51-.09-2.46-1.22.02-.47,3.07-.5,3.42-.37Z"/>
          <path class="cls-11" d="M200.07,32.68h-.25c.05-.37-.01-.83,0-1.23.41.21.21.84.25,1.23Z"/>
          <path class="cls-228" d="M240.98,38.32c.36.11.85.08,1.23.25.25.39.2.6-.02.99-.39.7-1.24,1.72-1.7,2.2-.55,2.19-.61,5.23-.98,7.6-1.29-1.46-2.85,1.81-.56,1.51.18.44.2.91.07,1.43-.14.76-.32,1.46-.49,2.21-.12.54-.13,1.24-.25,1.72l-.67-.27c-.45-1.06-.71-2.18-.91-3.31-.98.73-1.27.08-.87-.83.03-1.16.35-2.31.61-3.43.42-1.81,1.12-5.29,1.84-6.86-.68-.73.55-1.17,1.25-1.41-.26-1.05.39-1.92,1.44-1.78Z"/>
          <path class="cls-223" d="M242.7,39.05c-.14.92-1.27,1.63-1.53,2.27-.28.68.01,1.39-.43,1.9,0-.46.17-1.2-.25-1.47.35-1.41,1.47-1.7,1.72-3.19.12.05.3.41.49.49Z"/>
          <path class="cls-48" d="M231.92,99.32c.08.38-.13.67-.63.86,1.57,1.68.8,3.66-1.62,3.3.14.22.16.55.04.99.51-.12.89,1.13.49,1.47.58.24.76.09.49-.49-.21-.08-.21-.16,0-.25-.25-.53.02-.93.81-1.2l.59-2.18.56-.05c.25,1.66.23,2.27,0,3.92-.02.16.03.34,0,.49-.03.2-.18.63-.25.98-.47,2.38-1.39,5.94-2.19,8.22-.15.43-.27.89-.75,1.09-.78-.15-1.9.08-2.79-.03-.77-.09-1.85-.67-2.35-.71h-.25c-.22-.73-.2-1.47,0-2.21,0-.33,0-.65,0-.98l.25-2.45c.02-4.11.28-4.77-1.86-8.31-1.62-2.69-3.45-2.76-.18-5.12,2.15-1.55,4.67-2.53,7.29-2.94.7.16,2.08,4.73,2.35,5.59Z"/>
          <path class="cls-49" d="M231.92,99.32c.02.08.22.16.25.25.21.72.38,1.46.49,2.21-.38.69-.4,1.81-.76,2.51-.15.3-.45.17-.47.19-.1.13.75.69.49.97-.38.41-1.13-1.72-1.22-.24-.38-.01-.62-.31-.71-.9l-.27.16c-.13-.34-.75-.75-.49-1.47.16-.16,2.71.58,2.41-1.29-.16-1.02-1.95-1.58.28-2.38Z"/>
          <path class="cls-217" d="M237.06,43.46c-.65,2.69-1.19,5.37-1.72,8.09-.02.08-.2.26-.25.49-.5-.62-1.19-.71-.98-1.71l-1.71,1.83-.24-.61c.38-2.01.71-3.9,1.23-5.88.92-.07,1.53-.72,1.82-1.94.65-.59,2.28-1.81,1.85-.27Z"/>
          <path class="cls-20" d="M235.84,51.79c.07.15-.07.66,0,.74.11.11,1.14-.8,1.22-.74.26,1.47.53,3.05,1.23,4.41-.24.94-.38,1.33-.74,2.21-1.93.25-2.25-1.07-2.45-2.7.2-1.3.46-2.6.49-3.92.05.04.23-.04.25,0Z"/>
          <path class="cls-198" d="M235.1,55.71c.03.77.82,1.1.94,1.39.1.26,0,.75.05.82s1.62-.35,1.47.49c-.6,1.5-1.31,3.32-3.18,3.43-.02-2.07.43-4.1.73-6.12Z"/>
          <path class="cls-27" d="M199.33,31.21c-.18.57-1-.01-1.28-.24-1.12-.92-1.62-3.35-.43-4.41.66-.05.76,0,.97.62.43,1.24.31,2.81.74,4.03Z"/>
          <path class="cls-11" d="M199.82,30.72c-.24-.07-.23-.28-.25-.49-.02-.23-.01-.5,0-.74.39.21.24.83.25,1.23Z"/>
          <path class="cls-237" d="M180.47,37.34c.12.74.75,1.53,1.47,1.72-.02.07.02.17,0,.25-1.15-.08-1.13,1.57-1.37,1.74-.48.34-2.18.35-2.79.95-.03-1.03-.7-.9-.98-1.47.91.11.09-.63.42-1.4.47-1.08,2.1-1.86,3.25-1.79Z"/>
          <path class="cls-87" d="M176.06,33.17c.05-.03.2-.34.49-.49,1.74-.94.97,2.78,1.1,3.68-.2.33-.48.15-.71-.03-.71-.55-.76-2.26-.89-3.15Z"/>
          <path class="cls-171" d="M175.57,33.42c-.25.75,1.02,3.41.12,3.67-1.34.39-1.49-2.66-1.34-3.43.12-.48.87-.15,1.23-.25Z"/>
          <path class="cls-118" d="M179.98,34.64c-.49-.01-1.15.14-1.71,0,.03-.6-.16-1.74.24-2.2,1.26-.26,2.02,1.16,1.47,2.21Z"/>
          <path class="cls-75" d="M172.87,34.4c.59-.27.93-.19.98.49,0,.16-.02.34,0,.49.09.65.3,1.29.25,1.96-.44,1.26-1.7-.67-1.47-1.47-.04-.2-.04-1.02,0-1.23.03-.13.16-.17.25-.25Z"/>
          <path class="cls-59" d="M177.04,37.09c.27,0,.56.05.82,0,.23-.05.04-.72.9-.24-.12.44-.63.55-.98.73l-.74-.49Z"/>
          <g>
            <path class="cls-161" d="M239.51,31.7c1.24.38,2.84.78,3.68,1.72.05.15-.14.27-.25.25-.62.64-.89,1.51-.8,2.62l-.42.32c.08.16.37.33.49.49-.31.68-1.24.21-1.72-.25-.76.44-2.04.08-1.23-.74-.08-.1-.46-.49-.49-.49-.19-.46-.13-1.04.18-1.73-.17-.9-.07-1.55.31-1.94-.02-.1.1-.29.25-.25Z"/>
            <path class="cls-62" d="M239.27,31.95c.26,1.49.4,2.3-.49,3.68-.07,0-.38.27-.59.22-.66-.18-.14-.85-.17-1.29-.09-1.11-.85-3.37,1.25-2.6Z"/>
            <path class="cls-207" d="M240.49,36.85c.11,0,.37-.28.59-.25.17.02-.08.61,1.13.5.09,0,.18.02.25,0,.87.36.27.81-.49.74-.68-.19-1.49-.28-2.21-.49-.42-.28-.18-.44.74-.49Z"/>
            <path class="cls-235" d="M242.94,33.66c.36.91.13,3.07-1.23,2.94-.24-.49.22-3.03.63-3.17.18-.06.44.2.59.23Z"/>
            <path class="cls-129" d="M240.25,32.44c.15-.12.67.05.88.22,1.4,1.16-1.35,5.59-1.39,2.6,0-.31.4-2.73.51-2.82Z"/>
          </g>
          <path class="cls-158" d="M172.87,34.4c.36-.29.52-.31.98-.25.01.24-.01.49,0,.74-.22-.45-.47-.59-.98-.49Z"/>
          <path class="cls-20" d="M239.02,52.28c.18-1.55-.28-.73-1.05-.99-.16-.05-.4-.69-.9-.6.34-.34.11-1,.29-1.3.09-.15.57-.16.66-.45.1-.35-.5-1.02.14-1.32.55-.25.25.54.41.69.26.23.73-.24.93,1.03-.15,1-.31,1.95-.49,2.94Z"/>
          <path class="cls-84" d="M230.2,60.61h-.25c-.59-.64-4.31-2.42-4.35-3.06l4.23-7.71,1.74,1.33-1.37,9.45Z"/>
          <path class="cls-31" d="M233.39,45.67c.16-.6,1.06-4.49,1.26-4.62.36-.24,2.71.23,2.88.49.39.6-.36,1.53-.46,1.93.04-.96-.19-.25-.49-.1-1.64.83-.83.95-1.61,2.04-.29.4-1.33,1.2-1.57.27Z"/>
          <path class="cls-48" d="M214.77,22.88v.49s-.24,0-.24,0v-.49c-.64-.17-.9.74-1.23.98-1.08.2-1.83.36-2.74,1.01-.52,1.25-1.41.97-2.41.46-.38.2-.63.02-.75-.55.21,1.11-1.08,1.71-.96.55-.19-.2-.06-.65.25-.74-2.03-.22-.95-3.4.49-3.43,1.18.17,2.53-.31,3.68-.49,2.03-.32,3.58-.24,3.92,2.21Z"/>
          <path class="cls-14" d="M208.89,31.95c.61-.06,1.7-.08,2.28.05,1.7.38,2.3,3.5.91,4.6-.63.05-1.1.29-1.96.25-.07-.33.26-.49.98-.49l.09-.6c1.07-.6.48-.93-.33-.13.18.65.09,1.02-.66.83.45-.47.51-1.64-.08-2.05-.55,1.1-2.18,1.06-2.94.25-.43-.07-.66-.2-.25-.49.48-.48.99-.48,1.47,0,.97-.21,1.97-.19,2.94,0,.79-1.07-.94-1.2-1.82-1.24-.45-.02-4.98.79-5.09,1.03l.29.46c.49-.15,1.68-.38,1.47.25.09.44.56.65,1.41.63,1.18.09,1.93.45,2.26,1.09.28.41-.34.32-.74.25-.64-.05-1.22-.22-1.83-.25-1.04-.06-3.08.36-3.74.07-1.17-.5-1.1-2.06-.56-3-.35-.34-.2-.49.25-.25.54-.74,1.52-.98,2.94-.74.34-.49,2.24-1.01,2.7-.49Z"/>
          <path class="cls-166" d="M206.44,25.33s.46.29.49.25c0-.97-.3-1.44.86-1.24.11.02.17.66.37.99l.29-.08c.31.36.75.6,1.33.72-.51,1.46-.34,2.42.58,3.53.13-.37.33-.36.49,0l.98.49c-1.21.6-1.74-.11-2.69-.73l-.25,1.72c-.11-.03-.22-.25-.24-.25-.42-.22-.6-.86-.55-1.92-.03-1.19-.26-1.69-.68-1.51.49,1.15-.02,1.57-1.55,1.24l-.16-1.73c-.42-.06-.82-.89-.25-.98.32-.19.64-.35.98-.49Z"/>
          <path class="cls-51" d="M213.3,23.86c-.56.41-1.52.52-2.21.98.06.22-.1.38-.49.49l.49.25-.18.61c-.86.72-.89,1.67-.06,2.82-.06.21-.23.37-.49.49-1.84-.52-.85-3.28-.99-3.42-.09-.1-.71.13-1.22-.74l.37-1.22c.14,2.91,1.69.25,3.05-.13.57-.16,1.14-.14,1.72-.12Z"/>
          <path class="cls-134" d="M205.46,28.76c.68-.65,1.18.36,1.3,1.11.85.2,1.15.56.9,1.09.05.55-1.04.51-1.23,0-.16.44-.08.68.25.74.22-.51,1.25-.55,1.72-.49.66-.11.5.16.49.74-.7.07-1.91.35-2.7.49-.41.14-.87.13-1.29.04.33-.78.41-2.47-.8-2.07l-.35-.42c-.31,1.25-1.6-.47-.13-.33l.62-.16c-.08-.35.19-.38.49-.25-.04-.38.44-.83.74-.49Z"/>
          <path class="cls-230" d="M207.42,27.29c.02-.55.44-.79.73-.49l.49,3.92c-.31.04-.21.46-.25.49-.58.44-1.06.42-1.72.49-.44.19-.49-.41-.25-.74.32-.09.94.1,1.23,0,.01-.23-.07-.42-.25-.57-.06-1.09-.06-2.13,0-3.1Z"/>
          <path class="cls-116" d="M212.32,25.33h-1.72c0-.28.31-.37.49-.49.34.3.74.25,1.23.49Z"/>
          <path class="cls-11" d="M201.54,24.11c.91-.62,3.32.88,1.72,1.23-2.42,1.24-2.11,3.85.8,3.92l.18.24c-.34.16-.54.33-.98.25-.11.44.37.15.49.24.85-.27,1.41,2.14,1.04,2.45-.76-.09-1.27.15-1.53.73-.07.06-.22.2-.25.25-.93.06-.68-.43-1.09-.75-.2-.16-.54-.03-.64-.12-.21-.19-.17-.53-.33-.75-.1-.14-.38-.16-.47-.39-.29-.72-.16-1.63-.17-2.4,0-.73-.04-1.48,0-2.21l.07-3.4c.54-.85,1.64-.13,1.16.71Z"/>
          <path class="cls-40" d="M210.11,34.4c.97.02.32,1.05.49,1.96h.24c.02-.24-.02-.49,0-.73.68-.2.82.36.25.74-.33.18-.69.25-.98.49-.5-.03-.86-.24-.98-.25.34.09.52-.15.74-.25-.08-.77,0-1.43.25-1.96Z"/>
          <g>
            <path class="cls-125" d="M191.98,95.4c1.22.61,2.61,1.31,3.68,2.21.35-.09.86.62.98.98.54.38.4.56-.25.49-1.45,2.06-3.5,4.46-3.86,7.05-.25,1.82.77,8.94.31,9.62s-4.69,1.14-5.59.67c-.63-.33-1.16-2.78-1.4-3.62-1.52-5.25-2.44-8.37-.74-13.72.53-.03,1.15-.19,1.68-.37-1.26-2.94,2.27-4.41,4.58-3.26.19-.1.39-.12.6-.05Z"/>
            <path class="cls-47" d="M185.12,99.08c.26-.81,1.44-4.71,1.96-5.03.91-.56,3.93.87,4.9,1.36-.48.78-1.03.13-1.6.11-.14,0-.34.28-.48.28-.31,0-.54-.38-.93-.33-.64.07-1.87,1.27-2.02,1.88-.25,1.04,1.63,1.71-1.22,2.14-.49.07-.7.31-.61-.4Z"/>
            <path class="cls-8" d="M196.88,98.34c.06.22-.02.3-.25.25-.5-.14-.71-.75-.98-.98l.25-.25c.42.38.6.55.98.98Z"/>
            <path class="cls-92" d="M187.08,103.98c.02.81-.17,1.83-.98,2.2.05-.56.11-2.28.98-2.2Z"/>
          </g>
          <path class="cls-132" d="M229.71,104.47c.07-1.3.72.03.98.74.03.07-.03.17,0,.25.32.54.05.83-.49.49-.13-.22-.34-1.08-.49-1.47Z"/>
          <path class="cls-49" d="M230.69,105.45c.05.14.42.31.24.73-.45.02-.53.11-.73-.24.52.06.55.03.49-.49Z"/>
          <path class="cls-16" d="M204.97,20.19c.53.11,1.59.89,2.21.98l-.83,1.25c-.93,1.47.31,1.43.34,2.18l-.27.26c-.13,1.27-2.26.79-2.42-.26-.53-.07-1.43-.42-1.47-.98-.48-.13-.67-.57-.17-1.06-1.72-1.31,2-2.57,2.13-1.88.01.07-1.41-.06-.98-.49.38-.03,1.14-.07,1.47,0Z"/>
          <path class="cls-120" d="M203.5,20.19l.98.49c-1.01-.28-3.73,2.36-.98.98.18.74-1.3,1.33-.98,1.71l.49.24c-.16.03-.36-.03-.49,0-.11.32-.44.48-.98.49-.18-.08-.35-.44-.49-.62-.7-.54-.46,2.43-.48,2.72-.03.31-.25.56-.25.59-.55-3.11-.76-6.34,3.19-6.62Z"/>
          <path class="cls-145" d="M203.99,24.6c.67.39.94.79,1.84.75.77-.03-.08-.86.85-.75,0,.24-.14.52-.25.74-.08.06.34.63-.98.49-.15.23-.4.31-.74.25l-.54.25c-2.06-.37-2.62,2.03-.23,2.17l.27.52c.63-.27.8-.19.49.25-.19.12-.32.16-.49.25-3.18.61-4.03-3.74-.98-4.17.46-.06.58-.34.36-.83l.37.1Z"/>
          <path class="cls-80" d="M204.72,34.4c-.4-.03-.82.02-1.22,0-.08-.37.11-.52.36-.74.34-.28,4.93-1.21,5.63-1.24,1.21-.04,2.69.31,2.82,1.73-.32.02-.65-.02-.98,0-.97-.19-1.97-.21-2.94,0-.49,0-.98,0-1.47,0l-.1.26c-.72-.18-1.42-.18-2.1-.01Z"/>
          <path class="cls-199" d="M210.11,34.4c.25.47.37,1.33.26,1.81-.07.3-.37.1-.5.15-.98-.22-2.36-.71-3.32-.74-1.13-.04-3.42,1.04-3.29-.73.77-.05,1.57.07,2.34,0,.32-.02.55-.25.59-.25.16-.41.73-.31.98,0,1.24-.16,1.16.15,1.59.16.16,0,.6-.42,1.35-.4Z"/>
          <path class="cls-120" d="M203.74,29.99c2.12-.6,1.49,1,2.2,2.2l-.98.12,1.23.12c-.06.01-.19.19-.39.23-.84.16-1.75-.19-2.55.51-.22-.95.56-.91,1.23-.98.11-.12-.64-2.13-.74-2.2Z"/>
          <path class="cls-108" d="M210.85,35.62c.03-.32-.02-.66,0-.98h1.47c.05,1.16-.45,1.29-1.22,1.72l-.25-.74Z"/>
          <path class="cls-40" d="M206.93,34.15l.25.49c-.51.07-.71-.03-.98,0-.27-.43-1.01-.21-1.47-.25.48-.44,1.51-.24,2.21-.25Z"/>
          <path class="cls-40" d="M211.34,34.15c-.97.05-1.97,0-2.94,0,.7-.42,2.29-.41,2.94,0Z"/>
          <path class="cls-120" d="M205.7,26.8c.15.46.42.82.25,1.47.45-.52,1.42.06,1.47,0s0-.74,0-.98c.4,1.06.53,2.41.47,3.54-.02.15-.13.1-.22.14-.24-.88-1.14-.09-1.47-.25.25-.71.02-1.64-.74-1.96-.26-.38,0-1.5.25-1.96Z"/>
          <path class="cls-120" d="M206.68,31.7c-.11.01-.3.25-.37.24-.47-.09-.29-.86.12-.97l.25.74Z"/>
          <path class="cls-141" d="M202.52,23.62c.6.17,1.13.78,1.47.98l-.24.12.49.61c-.32.04-.67-.04-.98,0,1.37-.76-1.1-.95-1.72-1.23.15-.59.62-.39.98-.49Z"/>
          <g>
            <path class="cls-138" d="M212.32,25.33c2.29,1.13,1.6,4.29-1.47,4.17-.16,0-.37.03-.49,0-.06-.52-.03-.55.49-.49l.46-.43c1.67-.12,1.79-2.23.04-2.42l-.25-.59c-.18-.06-.51.13-.49-.25.46-.24,1.03-.24,1.72,0Z"/>
            <path class="cls-176" d="M210.85,29.01c-1.63-.42-1.41-2.95.25-3.43,1.06.33,2.03.45,1.98,1.83-.04,1.17-1.1,1.89-2.22,1.6Z"/>
            <path class="cls-44" d="M211.58,27.78c-.18.18-.99.11-.73-.61.3-.84,1.05.29.73.61Z"/>
          </g>
          <g>
            <path class="cls-141" d="M205.46,25.82c-.07.39.15.67.25.98-.01.63.13,1.4-.25,1.96-.06.09-.57.39-.74.49-.06-.24-.28-.23-.49-.25.4-1.08.59-1.77.49-2.94,0-.95.27-.29.74-.25Z"/>
            <path class="cls-204" d="M204.72,26.07c.92.66.61,2.5-.49,2.94-4.43-.36-1.62-4.46.49-2.94Z"/>
            <path class="cls-97" d="M203.99,28.02c-.55.44-1.31-1.4-.12-.98.4.14.28.86.12.98Z"/>
          </g>
        </g>
        <g>
          <path class="cls-238" d="M224.81,87.07c.35.81-1.16,1.67-1.87,2.02-2.85,1.44-5.64,2.43-8.82,2.87l4.46,7.15c1.34-3.07,8.99-7.18,12.05-6.44l.3.53c.3-.21.62-.05.98.49.12,1.2-.66,1.82-.63,2.22.03.37.91,2.49,1.12,3.17.06.39-.02.56-.25.49-.33.34-.47.19-.25-.25l-.52-.04c-.52-1.73-1.17-3.58-1.89-5.1-3.07.71-6.7,1.88-8.54,4.52,2.44,3.4,4.5,6.49,3.86,10.94l-.49.46-.25,2.45c.48.31.48.67,0,.98-.2.71-.23,1.49,0,2.21.07-.21.15-.21.25,0,.41.18-.63.68-.69.68-.3-.02-.19-1.57-.04-1.9-.01-.41,0-.82,0-1.23l.25-1.96c.02-2.15.27-4.78-.44-6.78-.2-.57-1.84-3.44-2.24-3.63-.38-.17-1.94.56-2.48-.23l-5.74-8.71c-.47-.42-1.22-.24-1.84-.25-2.15.05-4.27-.04-6.37-.25-.29-.01-.53-.01-.74-.25l.75-.45c6.47.25,13.42-.19,18.94-3.91l.89-.05c.34-.32.47-.18.25.25Z"/>
          <g>
            <path class="cls-191" d="M231.92,93.69c-.39.13-.9-.48-.98-.49-.32-.34-.19-.47.25-.25.08-.08.17-.16.25-.25.09.25.43.35.49.98Z"/>
            <path class="cls-150" d="M211.09,91.73c-1.03,0-1.87.24-2.8.26-1.21.01-2.54-.32-3.57-.26v-.25c2.08.11,4.37-.29,6.37.25Z"/>
            <path class="cls-246" d="M220.65,100.54h-1.47c-.06-.56.19-1.1.61-1.46.27.17,1.09,1.25.86,1.46Z"/>
            <path class="cls-216" d="M231.18,94.91c-.7-.32-1.14-1.61-.12-1.22.6.23.19.78.12,1.22Z"/>
            <g>
              <path class="cls-3" d="M223.59,113.29c0-.61-.19-1.55.25-1.96,0,.61.19,1.55-.25,1.96Z"/>
              <path class="cls-3" d="M224.08,112.55c0-.77-.2-1.89.25-2.45,0,.77.2,1.89-.25,2.45Z"/>
              <path class="cls-3" d="M224.08,115.74c-.41-.34-.42-1.73,0-2.21,0,.73,0,1.47,0,2.21Z"/>
            </g>
          </g>
        </g>
      </g>
    </g>
  </g>
  <ellipse class="cls-58" cx="209.34" cy="134.08" rx="116.48" ry="6.44"/>
</svg>